<svg width="16" height="17" viewBox="0 0 16 17" fill="none" xmlns="http://www.w3.org/2000/svg">
<path d="M4.66668 5.16659V2.49992C4.66668 2.32311 4.73691 2.15354 4.86194 2.02851C4.98696 1.90349 5.15653 1.83325 5.33334 1.83325H14C14.1768 1.83325 14.3464 1.90349 14.4714 2.02851C14.5964 2.15354 14.6667 2.32311 14.6667 2.49992V11.1666C14.6667 11.3434 14.5964 11.513 14.4714 11.638C14.3464 11.763 14.1768 11.8333 14 11.8333H11.3333V14.4953C11.3333 14.8659 11.034 15.1666 10.662 15.1666H2.00468C1.91649 15.1667 1.82915 15.1494 1.74767 15.1157C1.66618 15.082 1.59213 15.0325 1.52978 14.9702C1.46742 14.9078 1.41797 14.8338 1.38427 14.7523C1.35056 14.6708 1.33326 14.5834 1.33334 14.4953L1.33534 5.83792C1.33534 5.46725 1.63468 5.16659 2.00668 5.16659H4.66668ZM6.00001 5.16659H10.662C11.0327 5.16659 11.3333 5.46592 11.3333 5.83792V10.4999H13.3333V3.16659H6.00001V5.16659ZM2.66868 6.49992L2.66668 13.8333H10V6.49992H2.66868Z" fill="#36394A"/>
</svg>
