<svg width="608" height="609" viewBox="0 0 608 609" fill="none" xmlns="http://www.w3.org/2000/svg">
<path d="M174.839 11.8439H17.2646V272.671H174.839V11.8439Z" fill="#E0E0E0"/>
<path d="M169.598 11.8439H12.0236V272.671H169.598V11.8439Z" fill="#EBEBEB"/>
<path d="M162.886 17.1262H18.7365V267.375H162.886V17.1262Z" fill="white"/>
<path d="M134.823 49.6454H46.1797V234.856H134.823V49.6454Z" fill="#EBEBEB"/>
<path d="M46.1797 169.281C45.9734 151.976 61.5314 135.084 78.6576 132.663C86.8287 131.521 95.5087 133.144 103.143 130.008C116.762 124.423 121.109 106.32 134.782 100.941L135.415 234.815H46.1797V169.281Z" fill="#E0E0E0"/>
<path d="M586.914 0V143.53H380.767L373.338 1.00419L586.914 0Z" fill="#E0E0E0"/>
<path d="M373.352 1.0042V143.227H579.499V1.0042H373.352Z" fill="white"/>
<path d="M580.462 144.204H372.362V0.0825195H580.462V144.204ZM374.329 142.251H578.509V1.93958H374.329V142.251Z" fill="#E0E0E0"/>
<path d="M557.16 18.6806H395.664V125.565H557.16V18.6806Z" fill="white"/>
<path d="M557.16 18.6807H556.362H554.065H545.206L511.916 18.8045L395.664 19.0383L396.132 18.5706C396.132 51.2273 396.132 87.3505 396.132 125.441L395.623 124.932L557.118 125.028L556.719 125.441C556.802 92.908 556.871 66.2901 556.926 47.6645C556.926 38.393 557.008 31.1573 557.036 26.1639C557.036 23.7153 557.036 21.8308 557.036 20.5102C557.036 19.2309 557.036 18.5568 557.036 18.5568C557.036 18.5568 557.036 19.1759 557.036 20.4277C557.036 21.6795 557.036 23.5778 557.036 25.9301C557.036 30.8822 557.036 38.1041 557.132 47.3481C557.132 65.9737 557.256 92.7429 557.352 125.372V125.771H556.94L395.444 125.881H394.935V125.372C394.935 87.3368 394.935 51.1585 394.935 18.5018V18.0341H395.389L511.957 18.268L545.123 18.3918H553.9H556.142C556.488 18.463 556.828 18.5596 557.16 18.6807Z" fill="#E0E0E0"/>
<path d="M373.338 0.605255C374.614 1.21797 375.806 1.98989 376.888 2.90256C378.992 4.42951 381.867 6.58924 384.976 9.06538C388.085 11.5415 390.795 13.8938 392.721 15.6546C393.829 16.5318 394.819 17.5491 395.665 18.681C395.486 18.9011 390.52 14.8018 384.33 9.86325C378.139 4.92474 373.16 0.839112 373.338 0.605255Z" fill="#E0E0E0"/>
<path d="M579.486 1.00419C579.665 1.2243 574.809 5.36494 568.646 10.2484C562.483 15.1319 557.339 18.9011 557.16 18.681C556.981 18.4609 561.837 14.3203 568.013 9.4368C574.19 4.55332 579.307 0.784094 579.486 1.00419Z" fill="#E0E0E0"/>
<path d="M579.321 143.255L556.334 124.616L579.321 143.255Z" fill="white"/>
<path d="M556.334 124.616C556.513 124.409 561.837 128.398 568.151 133.543C574.465 138.688 579.5 143.035 579.321 143.255C579.142 143.475 573.819 139.472 567.518 134.327C561.218 129.183 556.169 124.836 556.334 124.616Z" fill="#E0E0E0"/>
<path d="M373.338 143.228C373.173 143.008 377.974 138.922 384.082 134.094C390.19 129.265 395.266 125.537 395.445 125.757C395.624 125.977 390.809 130.063 384.715 134.891C378.621 139.72 373.517 143.448 373.338 143.228Z" fill="#E0E0E0"/>
<path d="M428.459 51.9701V87.7632H530.074V51.9701L428.459 51.9701Z" fill="#E0E0E0"/>
<path d="M274.254 476.838C274.254 470.606 279.027 466.094 285.452 466.094C286.999 466.038 288.54 466.322 289.966 466.925C291.392 467.529 292.669 468.438 293.705 469.588L291.216 471.913C290.515 471.128 289.653 470.503 288.69 470.081C287.726 469.658 286.683 469.448 285.63 469.464C284.638 469.422 283.647 469.58 282.718 469.93C281.788 470.28 280.939 470.815 280.222 471.502C279.505 472.189 278.934 473.014 278.544 473.927C278.154 474.841 277.953 475.824 277.953 476.817C277.953 477.81 278.154 478.793 278.544 479.707C278.934 480.62 279.505 481.446 280.222 482.133C280.939 482.82 281.788 483.354 282.718 483.704C283.647 484.055 284.638 484.213 285.63 484.17C286.687 484.188 287.734 483.974 288.699 483.544C289.664 483.114 290.523 482.478 291.216 481.68L293.733 484.074C292.695 485.223 291.418 486.131 289.993 486.734C288.567 487.338 287.026 487.622 285.479 487.568C278.986 487.595 274.254 483.083 274.254 476.838Z" fill="#EBEBEB"/>
<path d="M253.029 493.222H227.112V467.305H253.029V493.222ZM228.488 491.846H251.653V468.68H228.488V491.846Z" fill="#EBEBEB"/>
<path d="M222.174 498.614C221.403 498.036 227.594 488.737 237.127 478.874C246.66 469.011 255.712 462.463 256.386 463.205C257.06 463.948 249.136 471.624 239.768 481.364C230.4 491.103 222.972 499.247 222.174 498.614Z" fill="#E0E0E0"/>
<path d="M256.743 498.05C255.904 498.655 248.834 490.058 239.493 480.084C230.153 470.111 222.064 462.463 222.71 461.665C223.357 460.867 232.601 467.442 242.107 477.636C251.612 487.829 257.528 497.555 256.743 498.05Z" fill="#E0E0E0"/>
<path d="M79.5247 392.308L66.8001 391.4L63.87 397.122L58.9866 396.778L72.2614 372.113L76.911 372.443L86.5404 398.732L81.5882 398.388L79.5247 392.308ZM78.2316 388.483L74.2285 376.997L68.726 387.796L78.2316 388.483Z" fill="#EBEBEB"/>
<path d="M37.9681 398.168L6.68628 395.953L8.9148 364.616L40.1829 366.845L37.9681 398.168ZM8.1582 394.674L36.6888 396.71L38.7109 368.165L10.1804 366.143L8.1582 394.674Z" fill="#EBEBEB"/>
<path d="M0.042141 402.225C-0.67317 401.606 7.78677 390.945 20.2359 379.775C32.6851 368.605 44.1576 361.273 44.7078 362.044C45.2581 362.814 34.8998 371.37 22.6983 382.43C10.4967 393.49 0.79872 402.913 0.042141 402.225Z" fill="#E0E0E0"/>
<path d="M42.2043 404.591C41.3239 405.141 33.593 393.93 23.0422 380.958C12.4913 367.986 3.17851 358.068 3.86631 357.312C4.55411 356.555 15.1187 365.483 25.8759 378.702C36.6331 391.922 43.0159 404.11 42.2043 404.591Z" fill="#E0E0E0"/>
<path d="M607.273 256.233C608.47 260.443 605.898 263.84 599.542 265.629L587.327 269.082L580.449 244.513L591.963 241.253C597.85 239.588 601.716 241.253 602.816 245.077C603.169 246.173 603.203 247.347 602.916 248.462C602.629 249.577 602.031 250.588 601.193 251.377C602.605 251.384 603.974 251.867 605.077 252.748C606.181 253.63 606.954 254.857 607.273 256.233ZM585.951 246.796L587.877 253.578L594.329 251.749C597.493 250.854 598.965 249.217 598.332 246.975C597.699 244.733 595.58 244.073 592.417 244.967L585.951 246.796ZM602.555 257.072C601.853 254.624 599.68 254.06 596.241 255.036L588.881 257.127L590.876 264.212L598.249 262.121C601.688 261.144 603.243 259.535 602.555 257.072Z" fill="#EBEBEB"/>
<path d="M534.38 287.075L525.837 256.907L556.005 248.364L564.548 278.532L534.38 287.075ZM527.502 257.856L535.288 285.369L562.801 277.569L555.001 250.056L527.502 257.856Z" fill="#EBEBEB"/>
<path d="M530.267 295.245C529.373 294.887 533.706 281.998 541.615 267.251C549.525 252.505 557.834 241.72 558.604 242.271C559.374 242.821 552.551 254.362 544.848 268.943C537.145 283.525 531.202 295.63 530.267 295.245Z" fill="#E0E0E0"/>
<path d="M570.723 283.126C570.077 283.937 559.003 276.028 544.669 267.416C530.335 258.805 518.203 252.629 518.615 251.68C519.028 250.73 531.986 255.545 546.513 264.349C561.039 273.153 571.328 282.397 570.723 283.126Z" fill="#E0E0E0"/>
<path d="M603.971 554.449C603.971 554.642 468.956 554.807 302.468 554.807C135.979 554.807 0.92252 554.573 0.92252 554.449C0.92252 554.325 135.91 554.091 302.468 554.091C469.025 554.091 603.971 554.174 603.971 554.449Z" fill="black"/>
<path d="M426.725 67.8033H73.4579V426.174H426.725V67.8033Z" fill="white"/>
<path d="M186.416 93.1953C185.567 93.1953 184.801 93.0625 184.119 92.7969C183.436 92.526 182.874 92.1224 182.431 91.5859C181.994 91.0495 181.71 90.3854 181.58 89.5938L183.775 89.1484C183.811 89.9401 184.051 90.5391 184.494 90.9453C184.936 91.3464 185.559 91.5469 186.361 91.5469C186.877 91.5469 187.296 91.474 187.619 91.3281C187.947 91.1771 188.189 90.974 188.345 90.7188C188.507 90.4583 188.588 90.1641 188.588 89.8359C188.588 89.3568 188.426 88.9948 188.103 88.75C187.785 88.5 187.361 88.3203 186.83 88.2109L185.564 87.9531C185.22 87.8854 184.851 87.7917 184.455 87.6719C184.064 87.5469 183.694 87.3724 183.345 87.1484C182.996 86.9193 182.71 86.6172 182.486 86.2422C182.267 85.862 182.158 85.3854 182.158 84.8125C182.158 84.0833 182.345 83.4792 182.72 83C183.095 82.5156 183.598 82.1536 184.228 81.9141C184.858 81.6745 185.554 81.5547 186.314 81.5547C187.111 81.5547 187.811 81.6771 188.416 81.9219C189.02 82.1667 189.515 82.5208 189.9 82.9844C190.291 83.4427 190.551 84 190.681 84.6562L188.525 85.1016C188.483 84.7057 188.379 84.3672 188.213 84.0859C188.051 83.7995 187.819 83.5807 187.517 83.4297C187.215 83.2786 186.822 83.2031 186.338 83.2031C185.926 83.2031 185.564 83.2604 185.252 83.375C184.939 83.4896 184.694 83.6589 184.517 83.8828C184.34 84.1016 184.252 84.3698 184.252 84.6875C184.252 85.0885 184.421 85.4036 184.759 85.6328C185.098 85.8568 185.598 86.0391 186.259 86.1797L187.548 86.4531C188.085 86.5625 188.595 86.7396 189.08 86.9844C189.569 87.224 189.968 87.5651 190.275 88.0078C190.588 88.4453 190.744 89.0208 190.744 89.7344C190.744 90.474 190.561 91.1042 190.197 91.625C189.838 92.1406 189.332 92.5312 188.681 92.7969C188.035 93.0625 187.28 93.1953 186.416 93.1953ZM192.182 93V84.5625H194.033V85.9531C194.262 85.4844 194.598 85.1042 195.041 84.8125C195.489 84.5156 196.012 84.3672 196.611 84.3672C197.189 84.3672 197.682 84.5156 198.088 84.8125C198.499 85.1042 198.804 85.5286 199.002 86.0859C199.299 85.5286 199.682 85.1042 200.15 84.8125C200.619 84.5156 201.14 84.3672 201.713 84.3672C202.546 84.3672 203.192 84.6641 203.65 85.2578C204.114 85.8516 204.346 86.6953 204.346 87.7891V93H202.416V87.8125C202.416 87.4323 202.377 87.0964 202.299 86.8047C202.221 86.513 202.088 86.2839 201.9 86.1172C201.713 85.9505 201.45 85.8672 201.111 85.8672C200.726 85.8672 200.393 85.987 200.111 86.2266C199.83 86.4609 199.611 86.7943 199.455 87.2266C199.304 87.6536 199.228 88.1589 199.228 88.7422V93H197.299V87.8125C197.299 87.4323 197.26 87.0964 197.182 86.8047C197.103 86.513 196.971 86.2839 196.783 86.1172C196.596 85.9505 196.338 85.8672 196.01 85.8672C195.624 85.8672 195.288 85.9844 195.002 86.2188C194.721 86.4531 194.502 86.7865 194.346 87.2188C194.189 87.6458 194.111 88.1562 194.111 88.75V93H192.182ZM208.549 93.1953C208.002 93.1953 207.51 93.0964 207.073 92.8984C206.635 92.7005 206.289 92.4141 206.033 92.0391C205.778 91.6589 205.651 91.2057 205.651 90.6797C205.651 90.112 205.815 89.6172 206.143 89.1953C206.476 88.7682 206.966 88.4375 207.612 88.2031C208.263 87.9688 209.067 87.8516 210.026 87.8516H211.291L211.151 88.0391V87.5625C211.151 86.9583 211.036 86.5026 210.807 86.1953C210.578 85.888 210.198 85.7344 209.666 85.7344C209.161 85.7344 208.773 85.8672 208.502 86.1328C208.231 86.3984 208.075 86.7656 208.033 87.2344L206.01 86.8516C206.078 86.388 206.265 85.9688 206.573 85.5938C206.885 85.2188 207.309 84.9193 207.846 84.6953C208.382 84.4714 209.028 84.3594 209.783 84.3594C210.502 84.3594 211.104 84.4818 211.588 84.7266C212.073 84.9714 212.434 85.3516 212.674 85.8672C212.919 86.3776 213.041 87.0391 213.041 87.8516V91.1016C213.041 91.2734 213.065 91.388 213.112 91.4453C213.164 91.5026 213.27 91.5312 213.432 91.5312H213.854V93H212.846C212.336 93 211.937 92.8646 211.651 92.5938C211.364 92.3177 211.221 91.9401 211.221 91.4609V90.9844L211.549 91.0781C211.476 91.3021 211.369 91.5365 211.229 91.7812C211.088 92.026 210.901 92.2552 210.666 92.4688C210.432 92.6823 210.14 92.8568 209.791 92.9922C209.448 93.1276 209.033 93.1953 208.549 93.1953ZM209.08 91.7969C209.471 91.7969 209.823 91.7057 210.135 91.5234C210.453 91.3359 210.703 91.0521 210.885 90.6719C211.073 90.2865 211.166 89.8021 211.166 89.2188V89.0781H210.057C209.448 89.0781 208.971 89.1589 208.627 89.3203C208.283 89.4766 208.041 89.6719 207.901 89.9062C207.76 90.1354 207.69 90.3646 207.69 90.5938C207.69 90.7917 207.734 90.9844 207.823 91.1719C207.916 91.3542 208.065 91.5052 208.268 91.625C208.471 91.7396 208.742 91.7969 209.08 91.7969ZM215.198 93V84.5625H217.049V86.4219L216.979 86.1875C217.239 85.5781 217.614 85.1224 218.104 84.8203C218.594 84.5182 219.114 84.3672 219.667 84.3672C219.823 84.3672 219.979 84.3802 220.135 84.4062C220.297 84.4323 220.45 84.4766 220.596 84.5391L220.424 86.2344C220.107 86.1406 219.797 86.0938 219.495 86.0938C219.271 86.0938 219.021 86.1354 218.745 86.2188C218.474 86.2969 218.216 86.4453 217.971 86.6641C217.726 86.8828 217.523 87.1979 217.362 87.6094C217.206 88.0156 217.128 88.5443 217.128 89.1953V93H215.198ZM224.089 93C223.578 93 223.172 92.8646 222.87 92.5938C222.568 92.3177 222.417 91.9401 222.417 91.4609V86.0312H221.151V84.5625H222.417V82.8672L224.347 82.4141V84.5625H225.956V86.0312H224.347V91.1016C224.347 91.2734 224.37 91.388 224.417 91.4453C224.469 91.5026 224.576 91.5312 224.737 91.5312H226.026V93H224.089ZM235.636 93.1953C234.537 93.1953 233.579 92.9505 232.761 92.4609C231.949 91.9714 231.319 91.2865 230.871 90.4062C230.423 89.526 230.199 88.5026 230.199 87.3359C230.199 86.1953 230.415 85.1927 230.847 84.3281C231.285 83.4583 231.91 82.7786 232.722 82.2891C233.535 81.7995 234.501 81.5547 235.621 81.5547C236.839 81.5547 237.884 81.862 238.753 82.4766C239.628 83.0911 240.204 83.9974 240.48 85.1953L238.402 85.6797C238.22 84.862 237.881 84.2526 237.386 83.8516C236.897 83.4505 236.303 83.25 235.605 83.25C234.918 83.25 234.329 83.4245 233.839 83.7734C233.355 84.1172 232.983 84.599 232.722 85.2188C232.467 85.8333 232.339 86.5495 232.339 87.3672C232.339 88.1953 232.47 88.9219 232.73 89.5469C232.996 90.1667 233.368 90.6484 233.847 90.9922C234.332 91.3307 234.904 91.5 235.566 91.5C236.285 91.5 236.897 91.2917 237.402 90.875C237.907 90.4531 238.24 89.862 238.402 89.1016L240.535 89.5781C240.227 90.7448 239.639 91.6406 238.769 92.2656C237.899 92.8854 236.855 93.1953 235.636 93.1953ZM241.847 93V81.75H246.558C247.772 81.75 248.704 81.9818 249.355 82.4453C250.012 82.9036 250.34 83.5729 250.34 84.4531C250.34 85.0104 250.222 85.4661 249.988 85.8203C249.754 86.1693 249.457 86.4349 249.097 86.6172C248.738 86.7943 248.371 86.9089 247.996 86.9609L248.019 86.9297C248.837 87.0599 249.493 87.3724 249.988 87.8672C250.483 88.362 250.73 89.0495 250.73 89.9297C250.73 90.6953 250.551 91.3021 250.191 91.75C249.832 92.1979 249.355 92.5182 248.762 92.7109C248.173 92.9036 247.53 93 246.832 93H241.847ZM243.871 91.4062H246.566C247.124 91.4062 247.556 91.3203 247.863 91.1484C248.17 90.9714 248.384 90.7448 248.504 90.4688C248.624 90.1927 248.683 89.901 248.683 89.5938C248.683 89.1927 248.592 88.8542 248.41 88.5781C248.233 88.3021 247.962 88.0911 247.597 87.9453C247.238 87.7995 246.785 87.7266 246.238 87.7266H243.871V91.4062ZM243.871 86.1953H246.426C246.972 86.1953 247.42 86.0833 247.769 85.8594C248.118 85.6354 248.293 85.2682 248.293 84.7578C248.293 84.3411 248.155 84.0026 247.879 83.7422C247.603 83.4766 247.134 83.3438 246.472 83.3438H243.871V86.1953ZM255.012 93V83.4453H251.02V81.75H261.043V83.4453H257.035V93H255.012ZM269.653 93.1953C268.804 93.1953 268.039 93.0625 267.356 92.7969C266.674 92.526 266.111 92.1224 265.669 91.5859C265.231 91.0495 264.947 90.3854 264.817 89.5938L267.013 89.1484C267.049 89.9401 267.289 90.5391 267.731 90.9453C268.174 91.3464 268.796 91.5469 269.598 91.5469C270.114 91.5469 270.533 91.474 270.856 91.3281C271.184 91.1771 271.427 90.974 271.583 90.7188C271.744 90.4583 271.825 90.1641 271.825 89.8359C271.825 89.3568 271.664 88.9948 271.341 88.75C271.023 88.5 270.598 88.3203 270.067 88.2109L268.802 87.9531C268.458 87.8854 268.088 87.7917 267.692 87.6719C267.302 87.5469 266.932 87.3724 266.583 87.1484C266.234 86.9193 265.947 86.6172 265.723 86.2422C265.505 85.862 265.395 85.3854 265.395 84.8125C265.395 84.0833 265.583 83.4792 265.958 83C266.333 82.5156 266.835 82.1536 267.466 81.9141C268.096 81.6745 268.791 81.5547 269.552 81.5547C270.348 81.5547 271.049 81.6771 271.653 81.9219C272.257 82.1667 272.752 82.5208 273.138 82.9844C273.528 83.4427 273.789 84 273.919 84.6562L271.763 85.1016C271.721 84.7057 271.617 84.3672 271.45 84.0859C271.289 83.7995 271.057 83.5807 270.755 83.4297C270.453 83.2786 270.059 83.2031 269.575 83.2031C269.164 83.2031 268.802 83.2604 268.489 83.375C268.177 83.4896 267.932 83.6589 267.755 83.8828C267.578 84.1016 267.489 84.3698 267.489 84.6875C267.489 85.0885 267.658 85.4036 267.997 85.6328C268.335 85.8568 268.835 86.0391 269.497 86.1797L270.786 86.4531C271.322 86.5625 271.833 86.7396 272.317 86.9844C272.807 87.224 273.205 87.5651 273.513 88.0078C273.825 88.4453 273.981 89.0208 273.981 89.7344C273.981 90.474 273.799 91.1042 273.434 91.625C273.075 92.1406 272.57 92.5312 271.919 92.7969C271.273 93.0625 270.518 93.1953 269.653 93.1953ZM275.903 96.0469V94.5781H277.271C277.375 94.5781 277.453 94.5521 277.505 94.5C277.562 94.4479 277.614 94.3594 277.661 94.2344L278.161 92.8359L278.028 93.5859L274.458 84.5625H276.63L279.005 91.75L278.747 91.7031L281.114 84.5625H283.271L279.31 94.8281C279.143 95.2552 278.898 95.5651 278.575 95.7578C278.252 95.9505 277.885 96.0469 277.474 96.0469H275.903ZM287.333 93.1953C286.708 93.1953 286.125 93.1016 285.583 92.9141C285.047 92.7214 284.596 92.4271 284.232 92.0312C283.873 91.6302 283.638 91.1172 283.529 90.4922L285.365 90.1328C285.417 90.6797 285.607 91.0885 285.935 91.3594C286.268 91.6302 286.711 91.7656 287.263 91.7656C287.81 91.7656 288.227 91.6458 288.513 91.4062C288.805 91.1667 288.951 90.8802 288.951 90.5469C288.951 90.2552 288.841 90.013 288.623 89.8203C288.409 89.6276 288.065 89.4922 287.591 89.4141L286.724 89.2656C286.432 89.2135 286.125 89.1458 285.802 89.0625C285.479 88.974 285.175 88.849 284.888 88.6875C284.602 88.5208 284.367 88.2969 284.185 88.0156C284.008 87.7292 283.919 87.3672 283.919 86.9297C283.919 86.3724 284.068 85.9036 284.365 85.5234C284.662 85.1432 285.063 84.8568 285.568 84.6641C286.078 84.4661 286.651 84.3672 287.287 84.3672C287.906 84.3672 288.461 84.4609 288.951 84.6484C289.445 84.8307 289.854 85.099 290.177 85.4531C290.505 85.8073 290.719 86.2422 290.818 86.7578L288.958 87.1328C288.922 86.8828 288.846 86.6562 288.732 86.4531C288.617 86.2448 288.445 86.0807 288.216 85.9609C287.992 85.8359 287.695 85.7734 287.326 85.7734C286.893 85.7734 286.537 85.862 286.255 86.0391C285.974 86.2109 285.833 86.4583 285.833 86.7812C285.833 86.9948 285.896 87.1719 286.021 87.3125C286.151 87.4479 286.333 87.5599 286.568 87.6484C286.802 87.737 287.078 87.8125 287.396 87.875L288.333 88.0547C288.776 88.1276 289.193 88.2552 289.583 88.4375C289.974 88.6146 290.289 88.8646 290.529 89.1875C290.774 89.5104 290.896 89.9349 290.896 90.4609C290.896 91.0443 290.742 91.5417 290.435 91.9531C290.128 92.3594 289.706 92.6693 289.169 92.8828C288.633 93.0911 288.021 93.1953 287.333 93.1953ZM294.474 93C293.964 93 293.558 92.8646 293.256 92.5938C292.954 92.3177 292.802 91.9401 292.802 91.4609V86.0312H291.537V84.5625H292.802V82.8672L294.732 82.4141V84.5625H296.342V86.0312H294.732V91.1016C294.732 91.2734 294.756 91.388 294.802 91.4453C294.855 91.5026 294.961 91.5312 295.123 91.5312H296.412V93H294.474ZM301.232 93.1953C300.415 93.1953 299.691 93.0156 299.061 92.6562C298.43 92.2969 297.936 91.7865 297.576 91.125C297.217 90.4635 297.037 89.6823 297.037 88.7812C297.037 87.8802 297.214 87.099 297.568 86.4375C297.923 85.776 298.412 85.2656 299.037 84.9062C299.662 84.5469 300.384 84.3672 301.201 84.3672C301.66 84.3672 302.121 84.4375 302.584 84.5781C303.053 84.7188 303.48 84.9688 303.865 85.3281C304.256 85.6823 304.571 86.1745 304.811 86.8047C305.05 87.4297 305.17 88.224 305.17 89.1875H298.279V87.9609H303.451L303.154 88.4062C303.123 87.776 303.014 87.2708 302.826 86.8906C302.644 86.5052 302.407 86.2266 302.115 86.0547C301.829 85.8776 301.509 85.7891 301.154 85.7891C300.706 85.7891 300.329 85.9115 300.022 86.1562C299.714 86.3958 299.48 86.7422 299.318 87.1953C299.162 87.6432 299.084 88.1745 299.084 88.7891C299.084 89.7057 299.264 90.4245 299.623 90.9453C299.982 91.4609 300.514 91.7188 301.217 91.7188C301.696 91.7188 302.105 91.5964 302.443 91.3516C302.782 91.1068 303.035 90.7422 303.201 90.2578L304.998 90.7578C304.795 91.3047 304.506 91.7578 304.131 92.1172C303.756 92.4766 303.318 92.7474 302.818 92.9297C302.318 93.1068 301.79 93.1953 301.232 93.1953ZM306.639 93V84.5625H308.491V85.9531C308.72 85.4844 309.056 85.1042 309.498 84.8125C309.946 84.5156 310.47 84.3672 311.069 84.3672C311.647 84.3672 312.139 84.5156 312.545 84.8125C312.957 85.1042 313.261 85.5286 313.459 86.0859C313.756 85.5286 314.139 85.1042 314.608 84.8125C315.077 84.5156 315.597 84.3672 316.17 84.3672C317.004 84.3672 317.649 84.6641 318.108 85.2578C318.571 85.8516 318.803 86.6953 318.803 87.7891V93H316.873V87.8125C316.873 87.4323 316.834 87.0964 316.756 86.8047C316.678 86.513 316.545 86.2839 316.358 86.1172C316.17 85.9505 315.907 85.8672 315.569 85.8672C315.183 85.8672 314.85 85.987 314.569 86.2266C314.287 86.4609 314.069 86.7943 313.912 87.2266C313.761 87.6536 313.686 88.1589 313.686 88.7422V93H311.756V87.8125C311.756 87.4323 311.717 87.0964 311.639 86.8047C311.561 86.513 311.428 86.2839 311.241 86.1172C311.053 85.9505 310.795 85.8672 310.467 85.8672C310.082 85.8672 309.746 85.9844 309.459 86.2188C309.178 86.4531 308.959 86.7865 308.803 87.2188C308.647 87.6458 308.569 88.1562 308.569 88.75V93H306.639Z" fill="#121212"/>
<path d="M426.873 426.174C426.873 426.174 426.873 426.009 426.873 425.734C426.873 425.459 426.873 425.019 426.873 424.469C426.873 423.354 426.873 421.717 426.873 419.516C426.873 415.142 426.873 408.69 426.804 400.258C426.804 383.421 426.708 358.742 426.639 327.351C426.57 264.665 426.46 175.141 426.323 67.8033L426.942 68.4223L73.7153 68.5186L74.4306 67.8033C74.4306 199.132 74.4306 322.151 74.3343 426.161L73.7153 425.555L329.659 425.858L401.479 426.023L420.435 426.092H425.318H426.556H426.983H425.387H420.573L401.727 426.161L330.058 426.326L73.7153 426.628H73.0963V426.009C73.0963 322 73.0963 199.035 73 67.652V66.9366H73.7566L426.983 67.0329H427.616V67.652C427.478 175.155 427.368 264.803 427.299 327.64C427.217 358.976 427.162 383.599 427.134 400.409C427.134 408.773 427.134 415.197 427.052 419.544C427.052 421.69 427.052 423.327 427.052 424.427V425.652C427.013 425.832 426.953 426.008 426.873 426.174Z" fill="#263238"/>
<path d="M101.19 126.252V135.758H99.4155V127.738H97.4071V126.252H101.19Z" fill="black"/>
<path d="M103.02 134.726C103.02 134.58 103.048 134.435 103.104 134.3C103.16 134.165 103.242 134.042 103.346 133.938C103.449 133.835 103.572 133.753 103.707 133.697C103.843 133.641 103.987 133.612 104.134 133.612C104.28 133.612 104.425 133.641 104.56 133.697C104.695 133.753 104.818 133.835 104.922 133.938C105.025 134.042 105.107 134.165 105.163 134.3C105.219 134.435 105.248 134.58 105.248 134.726C105.248 134.873 105.219 135.017 105.163 135.153C105.107 135.288 105.025 135.411 104.922 135.514C104.818 135.618 104.695 135.7 104.56 135.756C104.425 135.812 104.28 135.84 104.134 135.84C103.987 135.84 103.843 135.812 103.707 135.756C103.572 135.7 103.449 135.618 103.346 135.514C103.242 135.411 103.16 135.288 103.104 135.153C103.048 135.017 103.02 134.873 103.02 134.726Z" fill="black"/>
<path d="M145.209 168.016H140.45L139.514 170.217H137.698L141.977 160.711H143.71L148.002 170.217H146.158L145.209 168.016ZM144.618 166.64L142.829 162.513L141.055 166.64H144.618Z" fill="black"/>
<path d="M97.2971 92.578C99.432 92.578 101.163 90.8473 101.163 88.7125C101.163 86.5776 99.432 84.847 97.2971 84.847C95.1622 84.847 93.4316 86.5776 93.4316 88.7125C93.4316 90.8473 95.1622 92.578 97.2971 92.578Z" fill="black"/>
<path d="M109.003 92.578C111.138 92.578 112.869 90.8473 112.869 88.7125C112.869 86.5776 111.138 84.847 109.003 84.847C106.869 84.847 105.138 86.5776 105.138 88.7125C105.138 90.8473 106.869 92.578 109.003 92.578Z" fill="black"/>
<path d="M120.71 92.578C122.845 92.578 124.575 90.8473 124.575 88.7125C124.575 86.5776 122.845 84.847 120.71 84.847C118.575 84.847 116.844 86.5776 116.844 88.7125C116.844 90.8473 118.575 92.578 120.71 92.578Z" fill="black"/>
<path d="M426.725 107.833C426.725 108.026 348.041 108.191 250.993 108.191C153.944 108.191 75.2461 108.026 75.2461 107.833C75.2461 107.641 153.917 107.476 250.993 107.476C348.069 107.476 426.725 107.641 426.725 107.833Z" fill="black"/>
<path d="M388.099 134.41C388.099 134.602 326.843 134.767 251.295 134.767C175.747 134.767 114.464 134.602 114.464 134.41C114.464 134.217 175.72 134.052 251.295 134.052C326.871 134.052 388.099 134.203 388.099 134.41Z" fill="black"/>
<path d="M220.055 143.709C220.055 143.901 196.67 144.066 167.783 144.066C138.895 144.066 115.427 143.901 115.427 143.709C115.427 143.516 138.813 143.351 167.783 143.351C196.753 143.351 220.055 143.502 220.055 143.709Z" fill="black"/>
<path d="M130.422 171.716H117.89V159.184H130.422V171.716ZM119.265 170.341H129.046V160.56H119.265V170.341Z" fill="black"/>
<path d="M147.424 191.428C147.424 193.052 146.145 194.001 143.696 194.001H138.978V184.495H143.421C145.704 184.495 146.929 185.458 146.929 186.971C146.943 187.4 146.836 187.824 146.619 188.194C146.402 188.564 146.085 188.865 145.704 189.062C146.216 189.205 146.664 189.516 146.977 189.946C147.289 190.375 147.447 190.898 147.424 191.428ZM140.738 185.926V188.54H143.242C144.453 188.54 145.154 188.113 145.154 187.247C145.154 186.38 144.453 185.871 143.242 185.871L140.738 185.926ZM145.636 191.291C145.636 190.342 144.92 189.915 143.586 189.915H140.738V192.667H143.586C144.92 192.667 145.636 192.199 145.636 191.291Z" fill="black"/>
<path d="M130.422 195.514H117.89V183.037H130.422V195.514ZM119.265 194.139H129.046V184.413H119.265V194.139Z" fill="black"/>
<path d="M138.29 213.039C138.339 212.034 138.682 211.066 139.276 210.254C139.87 209.442 140.689 208.822 141.632 208.47C142.575 208.119 143.6 208.052 144.58 208.277C145.561 208.502 146.454 209.01 147.149 209.738L146.007 210.811C145.687 210.454 145.294 210.17 144.855 209.978C144.416 209.786 143.941 209.69 143.462 209.696C142.576 209.696 141.725 210.049 141.099 210.675C140.472 211.302 140.119 212.153 140.119 213.039C140.119 213.926 140.472 214.776 141.099 215.403C141.725 216.03 142.576 216.382 143.462 216.382C143.943 216.389 144.419 216.291 144.858 216.097C145.298 215.902 145.689 215.614 146.007 215.254L147.149 216.341C146.454 217.068 145.561 217.576 144.58 217.801C143.6 218.026 142.575 217.959 141.632 217.608C140.689 217.257 139.87 216.637 139.276 215.824C138.682 215.012 138.339 214.044 138.29 213.039Z" fill="black"/>
<path d="M130.422 219.298H117.89V206.766H130.422V219.298ZM119.265 217.923H129.046V208.142H119.265V217.923Z" fill="black"/>
<path d="M138.978 232.077H143.105C146.186 232.077 148.291 233.976 148.291 236.823C148.291 239.671 146.186 241.583 143.105 241.583H138.978V232.077ZM143.105 240.083C143.55 240.112 143.996 240.05 144.416 239.899C144.835 239.749 145.22 239.514 145.545 239.209C145.871 238.904 146.13 238.536 146.308 238.126C146.485 237.717 146.576 237.276 146.576 236.83C146.576 236.384 146.485 235.943 146.308 235.534C146.13 235.124 145.871 234.756 145.545 234.451C145.22 234.146 144.835 233.911 144.416 233.761C143.996 233.61 143.55 233.548 143.105 233.577H140.738V240.083H143.105Z" fill="black"/>
<path d="M130.422 243.096H117.89V230.564H130.422V243.096ZM119.265 241.72H129.046V231.94H119.265V241.72Z" fill="black"/>
<path d="M251.282 165.457C251.282 165.65 230.648 165.815 205.116 165.815C179.585 165.815 158.938 165.65 158.938 165.457C158.938 165.264 179.572 165.099 205.116 165.099C230.661 165.099 251.282 165.251 251.282 165.457Z" fill="black"/>
<path d="M378.387 189.241C378.387 189.448 329.251 189.599 268.669 189.599C208.088 189.599 158.938 189.448 158.938 189.241C158.938 189.035 208.06 188.884 268.669 188.884C329.278 188.884 378.387 189.049 378.387 189.241Z" fill="black"/>
<path d="M189.133 236.823C189.133 237.016 182.378 237.181 174.001 237.181C165.623 237.181 158.869 237.016 158.869 236.823C158.869 236.631 165.623 236.465 174.001 236.465C182.378 236.465 189.133 236.686 189.133 236.823Z" fill="black"/>
<path d="M268.655 213.039C268.655 213.232 244.101 213.397 213.796 213.397C183.492 213.397 158.938 213.232 158.938 213.039C158.938 212.846 183.492 212.681 213.796 212.681C244.101 212.681 268.655 212.833 268.655 213.039Z" fill="black"/>
<path d="M101.534 270.691V272.176H94.5183V270.993L98.3013 267.417C99.223 266.536 99.388 265.972 99.388 265.449C99.388 264.569 98.7828 264.074 97.6135 264.074C97.1923 264.052 96.772 264.131 96.387 264.303C96.0021 264.475 95.6634 264.736 95.3987 265.064L94.1606 264.115C94.5967 263.589 95.1497 263.172 95.7754 262.897C96.4011 262.623 97.0824 262.498 97.7648 262.533C99.8282 262.533 101.163 263.579 101.163 265.284C101.148 265.871 100.999 266.446 100.727 266.966C100.455 267.486 100.068 267.936 99.5944 268.283L97.0495 270.704L101.534 270.691Z" fill="black"/>
<path d="M102.566 271.144C102.566 270.849 102.683 270.565 102.892 270.356C103.101 270.147 103.384 270.03 103.68 270.03C103.975 270.03 104.259 270.147 104.468 270.356C104.677 270.565 104.794 270.849 104.794 271.144C104.794 271.44 104.677 271.723 104.468 271.932C104.259 272.141 103.975 272.259 103.68 272.259C103.384 272.259 103.101 272.141 102.892 271.932C102.683 271.723 102.566 271.44 102.566 271.144Z" fill="black"/>
<path d="M141.88 304.434H137.134L136.199 306.635H134.369L138.648 297.129H140.395L144.687 306.635H142.802L141.88 304.434ZM141.303 303.058L139.514 298.931L137.726 303.058H141.303Z" fill="black"/>
<path d="M384.77 270.828C384.77 271.021 323.514 271.186 247.966 271.186C172.418 271.186 111.163 271.076 111.163 270.828C111.163 270.58 172.405 270.47 247.98 270.47C323.556 270.47 384.77 270.635 384.77 270.828Z" fill="black"/>
<path d="M216.74 280.127C216.74 280.32 193.355 280.485 164.385 280.485C135.415 280.485 112.03 280.32 112.03 280.127C112.03 279.934 135.415 279.769 164.385 279.769C193.355 279.769 216.74 279.921 216.74 280.127Z" fill="black"/>
<path d="M127.038 308.217H114.506V295.685H127.038V308.217ZM115.881 306.841H125.662V297.061H115.881V306.841Z" fill="black"/>
<path d="M144.095 327.847C144.095 329.47 142.816 330.419 140.381 330.419H135.649V320.913H140.051C142.334 320.913 143.559 321.876 143.559 323.39C143.57 323.818 143.461 324.24 143.244 324.61C143.028 324.979 142.713 325.281 142.334 325.481C142.855 325.613 143.314 325.92 143.635 326.351C143.955 326.782 144.118 327.31 144.095 327.847ZM137.423 322.344V324.972H139.913C141.137 324.972 141.825 324.531 141.825 323.665C141.825 322.798 141.137 322.289 139.913 322.289L137.423 322.344ZM142.32 327.709C142.32 326.76 141.605 326.333 140.271 326.333H137.423V329.085H140.271C141.605 329.043 142.32 328.617 142.32 327.668V327.709Z" fill="black"/>
<path d="M127.038 331.932H114.506V319.4H127.038V331.932ZM115.881 330.557H125.662V320.776H115.881V330.557Z" fill="black"/>
<path d="M134.975 349.485C134.968 348.824 135.097 348.169 135.353 347.56C135.609 346.951 135.987 346.401 136.464 345.943C136.941 345.486 137.506 345.131 138.126 344.9C138.745 344.669 139.405 344.567 140.064 344.601C140.768 344.572 141.47 344.699 142.119 344.973C142.768 345.246 143.349 345.66 143.82 346.183L142.692 347.256C142.371 346.901 141.978 346.618 141.539 346.426C141.1 346.234 140.626 346.137 140.147 346.142C139.26 346.142 138.41 346.494 137.783 347.121C137.156 347.748 136.804 348.598 136.804 349.485C136.804 350.371 137.156 351.222 137.783 351.848C138.41 352.475 139.26 352.828 140.147 352.828C140.627 352.833 141.103 352.736 141.542 352.541C141.982 352.346 142.374 352.059 142.692 351.7L143.82 352.786C143.127 353.516 142.235 354.025 141.254 354.251C140.274 354.478 139.249 354.411 138.306 354.059C137.364 353.707 136.545 353.086 135.953 352.273C135.361 351.459 135.02 350.49 134.975 349.485Z" fill="black"/>
<path d="M127.038 355.716H114.506V343.185H127.038V355.716ZM115.881 354.341H125.662V344.56H115.881V354.341Z" fill="black"/>
<path d="M135.649 368.495H139.776C142.857 368.495 144.962 370.394 144.962 373.255C144.962 376.116 142.857 378.001 139.776 378.001H135.649V368.495ZM139.776 376.515C140.229 376.557 140.686 376.504 141.117 376.359C141.549 376.214 141.946 375.981 142.282 375.674C142.618 375.367 142.887 374.994 143.071 374.577C143.254 374.161 143.349 373.71 143.349 373.255C143.349 372.8 143.254 372.35 143.071 371.933C142.887 371.517 142.618 371.143 142.282 370.836C141.946 370.53 141.549 370.296 141.117 370.151C140.686 370.007 140.229 369.953 139.776 369.995H137.478V376.515H139.776Z" fill="black"/>
<path d="M127.038 379.514H114.506V366.982H127.038V379.514ZM115.881 378.139H125.662V368.358H115.881V378.139Z" fill="black"/>
<path d="M247.966 301.875C247.966 302.068 227.332 302.233 201.788 302.233C176.243 302.233 155.609 302.068 155.609 301.875C155.609 301.683 176.243 301.518 201.788 301.518C227.332 301.518 247.966 301.683 247.966 301.875Z" fill="black"/>
<path d="M375.058 325.659C375.058 325.866 325.935 326.017 265.34 326.017C204.745 326.017 155.609 325.866 155.609 325.659C155.609 325.453 204.731 325.302 265.34 325.302C325.949 325.302 375.058 325.467 375.058 325.659Z" fill="black"/>
<path d="M185.817 373.241C185.817 373.448 179.049 373.599 170.686 373.599C162.322 373.599 155.554 373.448 155.554 373.241C155.554 373.035 162.322 372.884 170.686 372.884C179.049 372.884 185.817 373.049 185.817 373.241Z" fill="black"/>
<path d="M265.34 349.485C265.34 349.677 240.772 349.842 210.481 349.842C180.191 349.842 155.609 349.677 155.609 349.485C155.609 349.292 180.177 349.127 210.481 349.127C240.786 349.127 265.34 349.251 265.34 349.485Z" fill="black"/>
<path d="M354.176 405.884H297.543C295.26 405.884 293 405.434 290.891 404.56C288.782 403.686 286.866 402.405 285.253 400.791C283.639 399.176 282.36 397.259 281.488 395.15C280.615 393.04 280.167 390.779 280.169 388.497C280.169 383.889 282 379.47 285.258 376.212C288.516 372.953 292.935 371.123 297.543 371.123H354.176C358.784 371.123 363.203 372.953 366.461 376.212C369.72 379.47 371.55 383.889 371.55 388.497C371.552 390.779 371.104 393.04 370.232 395.15C369.359 397.259 368.08 399.176 366.466 400.791C364.853 402.405 362.937 403.686 360.828 404.56C358.719 405.434 356.459 405.884 354.176 405.884Z" fill="#9234EA"/>
<path d="M311.684 384.37V393.82H309.882L305.123 388.084V393.82H302.963V384.37H304.765L309.456 390.106V384.37H311.684Z" fill="white"/>
<path d="M321.231 392.128V393.889H313.913V384.439H321.052V386.199H316.127V388.249H320.516V389.941H316.127V392.128H321.231Z" fill="white"/>
<path d="M328.824 393.82L326.541 390.546L324.298 393.82H321.795L325.289 389.02L321.974 384.37H324.45L326.623 387.438L328.755 384.37H331.122L327.82 388.937L331.355 393.82H328.824Z" fill="white"/>
<path d="M334.01 386.158H330.984V384.37H339.238V386.158H336.211V393.82H334.01V386.158Z" fill="white"/>
<path d="M351.191 393.105C351.076 393.104 350.964 393.074 350.863 393.019C350.762 392.964 350.677 392.885 350.614 392.789C350.514 392.637 350.478 392.452 350.514 392.274C350.551 392.097 350.655 391.94 350.806 391.84L355.194 388.909C355.264 388.866 355.321 388.805 355.36 388.733C355.398 388.66 355.417 388.579 355.414 388.497C355.414 388.414 355.393 388.332 355.352 388.26C355.311 388.187 355.252 388.127 355.181 388.084L350.834 385.512C350.68 385.417 350.57 385.266 350.527 385.091C350.484 384.916 350.511 384.73 350.603 384.575C350.695 384.42 350.844 384.307 351.019 384.261C351.193 384.215 351.379 384.239 351.535 384.329L355.882 386.887C356.154 387.051 356.38 387.28 356.539 387.553C356.699 387.827 356.787 388.137 356.795 388.453C356.803 388.77 356.732 389.084 356.586 389.366C356.441 389.647 356.227 389.888 355.965 390.065L351.576 392.981C351.463 393.059 351.329 393.103 351.191 393.105Z" fill="white"/>
<path d="M116.335 195.294C115.923 194.881 118.578 191.539 122.278 187.824C125.978 184.11 129.321 181.469 129.748 181.882C130.174 182.294 127.505 185.651 123.805 189.351C120.105 193.052 116.762 195.721 116.335 195.294Z" fill="#9234EA"/>
<path d="M132.031 196.601C131.619 197.027 128.056 194.139 124.08 190.163C120.104 186.187 117.202 182.638 117.642 182.212C118.082 181.785 121.631 184.674 125.593 188.65C129.555 192.625 132.458 196.188 132.031 196.601Z" fill="#9234EA"/>
<path d="M113.323 308.822C112.896 308.396 115.565 305.053 119.265 301.353C122.966 297.652 126.309 294.997 126.735 295.41C127.162 295.823 124.493 299.165 120.779 302.879C117.064 306.594 113.735 309.235 113.323 308.822Z" fill="#9234EA"/>
<path d="M129.046 310.129C128.62 310.542 125.071 307.667 121.095 303.691C117.119 299.716 114.217 296.153 114.657 295.74C115.097 295.327 118.633 298.202 122.608 302.178C126.584 306.153 129.431 309.703 129.046 310.129Z" fill="#9234EA"/>
<path d="M380.12 588.206L283.539 557.2C283.281 557.12 283.011 557.087 282.741 557.104L208.459 562.606C195.405 530.967 179.049 491.419 171.607 473.357C170.367 470.396 168.369 467.814 165.814 465.87C163.259 463.926 160.238 462.689 157.053 462.284L76.608 451.774C75.6515 451.658 74.6813 451.795 73.7944 452.172C72.9075 452.548 72.135 453.151 71.5543 453.92C70.9735 454.689 70.6048 455.596 70.485 456.552C70.3652 457.508 70.4986 458.479 70.8717 459.367L116.17 565C116.77 566.401 117.654 567.663 118.767 568.705C119.88 569.747 121.197 570.546 122.636 571.052L214.649 607.767C216.752 608.605 219.031 608.908 221.28 608.647L227.167 608.001C247.554 605.869 348.22 595.621 379.707 592.319C380.206 592.293 380.68 592.089 381.042 591.745C381.403 591.4 381.63 590.937 381.679 590.44C381.729 589.943 381.6 589.444 381.314 589.034C381.027 588.624 380.604 588.331 380.12 588.206Z" fill="#E0E0E0"/>
<path d="M380.12 588.206C380.442 588.31 380.735 588.489 380.974 588.728C381.213 588.967 381.392 589.26 381.496 589.582C381.621 589.989 381.623 590.423 381.504 590.831C381.384 591.24 381.147 591.604 380.822 591.879C380.388 592.214 379.857 592.398 379.309 592.402L377.493 592.594L354.892 594.988L271.75 603.64L244.238 606.502L229.588 608.015L222.064 608.826C219.458 609.232 216.791 608.923 214.347 607.932L152.802 583.419L136.364 576.857L127.987 573.528L123.764 571.85C123.062 571.548 122.388 571.3 121.631 570.984C120.911 570.665 120.229 570.268 119.595 569.801C118.322 568.858 117.254 567.664 116.459 566.293C115.689 564.917 115.194 563.473 114.561 562.056L110.888 553.513C108.421 547.791 105.94 542.009 103.446 536.167C93.4453 512.782 83.0733 488.681 72.4674 463.948L71.0093 460.55C70.3929 459.42 70.0756 458.151 70.0876 456.864C70.1668 455.552 70.6824 454.305 71.5524 453.32C72.4224 452.336 73.5967 451.67 74.8885 451.43C75.2049 451.361 75.535 451.43 75.8652 451.334L76.8143 451.403L78.6301 451.65L82.2479 452.118L89.4561 453.053L117.903 456.781L145.691 460.413L152.569 461.307C154.838 461.651 157.108 461.802 159.447 462.339C163.965 463.503 167.888 466.308 170.451 470.207C171.598 472.149 172.56 474.194 173.326 476.315C174.17 478.369 175.014 480.414 175.857 482.45L180.851 494.569L190.59 518.174C196.945 533.609 203.067 548.438 208.886 562.551L208.583 562.359L280.967 557.007L282.975 556.856C283.337 556.852 283.697 556.918 284.035 557.049L284.984 557.365L288.615 558.576L295.933 560.928L309.731 565.454L334.079 573.308L368.125 584.313L377.066 587.243C379.088 587.903 380.12 588.261 380.12 588.261C380.12 588.261 379.075 587.958 377.039 587.326L368.07 584.492L334.01 573.57L309.648 565.784L295.755 561.327L288.436 558.988L284.681 557.792C284.091 557.55 283.471 557.388 282.838 557.31L280.829 557.461L208.459 562.964H208.253L208.156 562.757C202.324 548.658 196.203 533.87 189.82 518.408L180.067 494.803C178.416 490.805 176.747 486.765 175.06 482.684C174.22 480.648 173.368 478.557 172.528 476.549C171.774 474.472 170.83 472.469 169.709 470.565C167.252 466.821 163.491 464.125 159.158 462.999C157.012 462.476 154.701 462.311 152.445 461.981L145.567 461.087L117.766 457.469L89.3185 453.755L82.0966 452.82L78.4788 452.338C77.3205 452.104 76.1356 452.03 74.9573 452.118C73.825 452.333 72.7965 452.919 72.0343 453.783C71.272 454.648 70.8194 455.741 70.7479 456.891C70.7394 458.071 71.0381 459.232 71.6146 460.262L73.114 463.659L104.079 535.892C106.582 541.725 109.058 547.507 111.507 553.238C112.745 556.1 113.955 558.947 115.18 561.781C115.799 563.156 116.335 564.67 117.051 565.908C117.792 567.197 118.795 568.316 119.994 569.195C120.589 569.635 121.231 570.009 121.906 570.31C122.567 570.598 123.282 570.86 123.997 571.149L128.22 572.841L136.584 576.183L153.091 582.745L214.608 607.327C216.958 608.29 219.528 608.59 222.036 608.194L229.575 607.382L244.225 605.896L271.737 603.145L354.905 594.713L377.52 592.443L379.336 592.278C379.861 592.277 380.372 592.108 380.794 591.796C381.107 591.537 381.337 591.192 381.457 590.803C381.577 590.415 381.581 590 381.468 589.609C381.337 589.124 381.021 588.709 380.588 588.454C380.285 588.275 380.12 588.22 380.12 588.206Z" fill="#263238"/>
<path d="M255.821 569.085L292.041 584.244L337.174 579.54L299.221 563.872L255.821 569.085Z" fill="#F5F5F5"/>
<path d="M228.515 597.739L299.221 591.356L231.707 564.587L210 566.224L221.472 593.901L228.515 597.739Z" fill="#F5F5F5"/>
<path d="M373.118 588.165L372.637 588.247L371.192 588.426L365.69 588.99L345.249 590.985L277.844 597.271L224.856 602.058H224.636L224.554 601.852L212.82 573.226L209.601 565.22C209.243 564.303 208.968 563.601 208.776 563.115C208.675 562.873 208.588 562.625 208.514 562.372C208.514 562.372 208.638 562.606 208.858 563.074L209.766 565.151L213.136 573.088C216.025 579.966 220.152 589.802 225.104 601.632L224.801 601.439L277.776 596.528L345.249 590.448L365.649 588.715L371.151 588.275L372.596 588.179L373.118 588.165Z" fill="black"/>
<path d="M73.2103 455.598H73.8155L75.6038 455.805L82.4818 456.699L107.71 460.138C118.357 461.623 131.095 463.412 145.113 465.489L155.898 467.153L158.649 467.621C159.103 467.69 159.584 467.8 160.024 467.91C160.258 467.91 160.506 468.006 160.74 468.075C161.9 468.541 162.953 469.238 163.835 470.125C164.192 470.505 164.476 470.948 164.674 471.432L165.21 472.807C168.085 479.988 171.057 487.43 174.11 495.037C186.271 525.506 197.262 553.101 205.24 573.102C209.188 583.075 212.38 591.164 214.608 596.776C215.681 599.527 216.52 601.728 217.112 603.241C217.387 603.957 217.593 604.507 217.744 604.92C217.822 605.107 217.887 605.3 217.937 605.497C217.84 605.319 217.753 605.135 217.676 604.947L216.974 603.283L214.347 596.886C212.077 591.274 208.844 583.226 204.718 573.281L173.519 495.298C170.465 487.691 167.494 480.249 164.619 473.068L164.082 471.693C163.917 471.287 163.679 470.914 163.381 470.592C162.766 469.923 162.022 469.385 161.194 469.01C160.988 468.912 160.776 468.824 160.561 468.749L159.9 468.584C159.46 468.488 159.02 468.391 158.525 468.323L155.774 467.841L144.989 466.149L107.628 460.647L82.4268 456.974L75.5488 455.956L73.7743 455.667L73.2103 455.598Z" fill="black"/>
<path d="M144.315 518.835C147.754 523.443 148.442 528.739 145.87 530.665C143.297 532.591 138.4 530.431 134.961 525.823C131.522 521.215 130.834 515.932 133.407 513.993C135.979 512.053 140.876 514.24 144.315 518.835Z" fill="white"/>
<path d="M579.527 440.274C574.919 414.138 546.017 398.387 536.471 389.693L550.818 408.883C558.162 439.169 560.943 470.381 559.072 501.488C558.879 504.886 559.251 509.467 561.672 509.948C562.546 510.021 563.415 509.75 564.093 509.192C572.566 503.758 578.069 491.309 579.293 478.488C580.517 465.668 581.618 452.366 579.527 440.274Z" fill="#9234EA"/>
<path d="M558.37 411.001C556.995 408.374 557.559 399.997 550.117 408.745L549.635 405.472L503.649 370.119L401.153 375.442C391.317 376.061 376.544 393.091 372.857 400.203C369.831 426.656 369.225 450.137 369.225 450.137C369.225 450.137 365.704 479.548 369.225 493.455C372.747 507.362 376.915 512.383 382.362 523.195C386.348 530.582 391.318 537.394 397.136 543.444L401.923 580.585L509 590.214L558.013 587.463C558.013 587.463 553.624 514.213 553.624 512.92C553.624 512.314 559.746 498.173 566.321 483.165C577.491 457.483 571.191 435.79 558.37 411.001Z" fill="#455A64"/>
<path d="M289.468 544.228C290.005 544.228 295.356 508.064 298.863 499.851C302.165 492.107 372.857 400.189 372.857 400.189L389.502 453.838L382.362 482.533L343.846 528.877L332.965 562.469L289.468 544.228Z" fill="#455A64"/>
<path d="M572.621 438.486C567.545 406.311 542.482 407.714 542.482 407.714L517.57 451.059V540.693L397.384 551.092L395.155 581.273C395.155 581.273 514.901 608.648 542.565 599.472C560.874 593.406 576.336 578.095 578.028 553.073C579.72 528.051 577.711 470.675 572.621 438.486Z" fill="#455A64"/>
<path d="M343.97 528.822C343.621 526.772 343.161 524.742 342.594 522.742C341.087 517.935 338.366 513.598 334.693 510.15C331.021 506.702 326.522 504.259 321.63 503.057C319.595 502.599 317.538 502.25 315.467 502.011C316.034 501.943 316.606 501.943 317.173 502.011C318.715 502.074 320.248 502.277 321.754 502.616C326.773 503.728 331.399 506.176 335.14 509.702C338.882 513.228 341.6 517.701 343.007 522.645C343.44 524.128 343.735 525.648 343.887 527.185C343.983 527.725 344.01 528.275 343.97 528.822Z" fill="black"/>
<path d="M401.497 549.854C401.668 549.808 401.843 549.776 402.02 549.758L403.547 549.538L409.434 548.754L431.127 546.003L502.658 537.309L518.56 535.411L518.244 535.755C519.166 511.379 519.62 489.892 519.455 474.499C519.455 466.809 519.289 460.633 519.193 456.382C519.193 454.292 519.097 452.655 519.069 451.513V450.247C519.069 449.958 519.069 449.821 519.069 449.807C519.084 449.953 519.084 450.101 519.069 450.247C519.069 450.564 519.069 450.976 519.152 451.499C519.152 452.655 519.289 454.25 519.386 456.382C519.565 460.619 519.757 466.796 519.867 474.499C520.115 489.892 519.785 511.406 518.891 535.768V536.071H518.588L502.686 537.983L431.086 546.47L409.379 548.96L403.464 549.593L401.923 549.744L401.497 549.854Z" fill="black"/>
<path d="M579.665 549.854C579.683 550.037 579.683 550.222 579.665 550.405C579.665 550.79 579.665 551.326 579.582 552C579.457 554.052 579.223 556.095 578.88 558.122C578.34 561.337 577.554 564.505 576.528 567.6C575.123 571.687 573.24 575.593 570.916 579.237C568.088 583.674 564.519 587.592 560.365 590.82C555.591 594.526 550.073 597.159 544.188 598.537C541.02 599.299 537.802 599.837 534.559 600.146C531.184 600.449 527.795 600.578 524.407 600.531C517.302 600.388 510.217 599.726 503.209 598.551L462.615 591.879L444.911 588.935L429.49 586.088C420.095 584.327 412.474 582.993 407.192 582.195L401.098 581.301L399.516 581.081C399.334 581.064 399.154 581.027 398.98 580.97H399.516L401.112 581.136C402.487 581.287 404.578 581.521 407.233 581.892C412.529 582.607 420.164 583.873 429.587 585.565L444.98 588.316L462.697 591.191L503.291 597.822C510.275 599.011 517.337 599.687 524.42 599.844C527.859 599.844 531.216 599.747 534.504 599.486C537.71 599.19 540.891 598.666 544.023 597.918C549.833 596.574 555.285 593.993 560.007 590.352C564.123 587.184 567.668 583.336 570.489 578.976C572.816 575.376 574.714 571.517 576.143 567.476C577.194 564.414 578.017 561.278 578.605 558.094C579.059 555.467 579.334 553.403 579.431 552L579.596 550.405C579.606 550.22 579.629 550.036 579.665 549.854Z" fill="black"/>
<path d="M398.251 552.069C398.194 551.885 398.157 551.696 398.14 551.505C398.072 551.079 397.975 550.515 397.879 549.827C397.659 548.286 397.343 546.14 396.958 543.417V543.513L387.851 533.43C386.076 530.899 384.472 528.251 383.05 525.506C381.461 522.381 380.055 519.166 378.841 515.877C376.157 508.444 374.311 500.734 373.338 492.891C372.378 484.401 372.18 475.843 372.747 467.318C373.173 459.478 373.985 452.434 374.755 446.547C375.526 440.659 376.255 435.914 376.777 432.626L377.396 428.857C377.465 428.458 377.52 428.141 377.575 427.88C377.586 427.766 377.614 427.655 377.658 427.55C377.67 427.66 377.67 427.77 377.658 427.88C377.658 428.155 377.658 428.472 377.548 428.87C377.424 429.806 377.273 431.071 377.066 432.667C376.626 435.955 375.98 440.714 375.264 446.616C374.549 452.517 373.902 459.533 373.476 467.373C372.951 475.854 373.162 484.364 374.109 492.808C375.067 500.603 376.875 508.269 379.501 515.671C380.689 518.926 382.067 522.109 383.628 525.204C385.02 527.934 386.587 530.571 388.319 533.1L397.301 543.307L398.044 549.731C398.113 550.432 398.168 550.996 398.223 551.423C398.271 551.635 398.28 551.854 398.251 552.069Z" fill="black"/>
<path d="M535.88 555.412C534.973 554.406 534.14 553.335 533.39 552.207C531.89 550.185 529.786 547.434 527.323 544.504C524.861 541.573 522.536 539.001 520.816 537.185C519.829 536.243 518.909 535.232 518.065 534.159C519.185 534.936 520.218 535.831 521.147 536.828C523.511 539.11 525.748 541.521 527.846 544.05C529.959 546.562 531.938 549.184 533.775 551.904C534.593 553 535.298 554.175 535.88 555.412Z" fill="black"/>
<path d="M318.878 548.644C317.861 542.77 312.509 538.189 312.509 538.189C312.509 538.189 309.951 531.036 306.127 529.152C302.302 527.267 299.249 531.036 295.92 530.018C292.591 529 285.451 528.739 283.154 530.018C280.857 531.298 278.051 538.437 278.051 538.437C275.735 538.53 273.469 539.141 271.42 540.225C269.684 541.122 268.181 542.413 267.032 543.994C266.035 543.606 264.943 543.529 263.902 543.775C262.86 544.021 261.918 544.577 261.2 545.37C259.804 547.001 258.76 548.902 258.132 550.955L256.316 555.824C255.967 556.567 255.806 557.385 255.849 558.204C255.989 558.878 256.353 559.485 256.883 559.925C257.413 560.365 258.076 560.612 258.765 560.625C259.464 560.629 260.156 560.484 260.796 560.202C261.436 559.92 262.009 559.507 262.479 558.988C263.415 558.064 264.241 557.035 264.941 555.921L265.395 559.112C265.395 559.112 266.152 564.161 270.237 564.463C273.057 564.683 276.111 561.409 276.111 561.409L283.25 560.639L284.268 567.778C284.739 569.154 285.638 570.343 286.834 571.17C288.03 571.997 289.459 572.419 290.913 572.373C293.471 572.373 296.773 568.04 296.773 568.04L303.417 570.585C303.417 570.585 311.065 575.949 314.642 574.161C315.642 573.655 316.44 572.824 316.905 571.804C317.37 570.784 317.474 569.636 317.2 568.549C318.727 566.818 319.934 564.829 320.763 562.675C321.726 559.621 319.951 554.518 318.878 548.644Z" fill="#FFBE9D"/>
<path d="M265.23 557.888C264.939 555.363 265.027 552.808 265.492 550.309C265.73 547.781 266.351 545.304 267.335 542.963C267.527 542.963 266.771 546.305 266.193 550.419C265.615 554.532 265.492 557.888 265.23 557.888Z" fill="#EB996E"/>
<path d="M276.386 551.175C276.82 552.911 277.024 554.696 276.992 556.485C277.138 557.777 277.007 559.086 276.606 560.323C276.207 561.286 275.643 561.699 275.602 561.588C275.561 561.478 275.891 561.052 276.125 560.213C276.361 559.012 276.412 557.783 276.276 556.567C276.067 554.773 276.104 552.959 276.386 551.175Z" fill="#EB996E"/>
<path d="M281.146 548.135C281.283 548.272 280.348 549.511 279.041 550.776C277.734 552.042 276.579 553.06 276.427 552.922C276.276 552.785 277.225 551.546 278.532 550.281C279.839 549.015 281.008 547.997 281.146 548.135Z" fill="#EB996E"/>
<path d="M282.095 534.406C282.249 535.693 282.305 536.99 282.26 538.286C282.26 540.693 282.356 543.995 282.549 547.64C282.742 551.285 283.03 554.587 283.237 556.981C283.432 558.264 283.515 559.562 283.484 560.86C283.104 559.614 282.855 558.333 282.742 557.036C282.398 554.656 282.04 551.354 281.834 547.681C281.627 544.008 281.655 540.693 281.751 538.286C281.731 536.984 281.846 535.684 282.095 534.406Z" fill="#EB996E"/>
<path d="M308.865 537.144C308.865 537.144 308.562 537.832 308.08 539.07C307.409 540.823 306.876 542.626 306.485 544.462C306.237 545.645 305.976 546.925 305.687 548.287C305.414 549.778 305.008 551.242 304.476 552.661C303.882 554.265 302.882 555.687 301.574 556.788C300.859 557.408 300.008 557.849 299.09 558.077C298.171 558.304 297.212 558.31 296.291 558.095C295.334 557.879 294.468 557.369 293.815 556.637C293.212 555.91 292.826 555.028 292.701 554.092C292.505 552.421 292.473 550.734 292.605 549.057C292.76 546.242 293.194 543.45 293.898 540.721C294.37 538.881 294.977 537.079 295.713 535.328C295.975 534.709 296.181 534.241 296.346 533.953C296.416 533.785 296.509 533.628 296.621 533.485C296.45 534.154 296.234 534.811 295.975 535.452C295.343 537.222 294.815 539.027 294.393 540.858C293.767 543.57 293.39 546.332 293.265 549.112C293.156 550.736 293.197 552.366 293.389 553.982C293.501 554.79 293.834 555.552 294.352 556.183C294.912 556.798 295.646 557.23 296.456 557.421C297.273 557.609 298.122 557.601 298.935 557.398C299.748 557.194 300.501 556.802 301.133 556.252C302.361 555.22 303.307 553.895 303.885 552.4C304.749 549.751 305.461 547.055 306.017 544.325C306.449 542.478 307.057 540.677 307.833 538.946C308.047 538.473 308.29 538.013 308.562 537.57C308.727 537.282 308.837 537.13 308.865 537.144Z" fill="#EB996E"/>
<path d="M311.56 540.239C311.367 541.764 310.694 543.189 309.638 544.307C308.582 545.424 307.198 546.177 305.686 546.457C306.891 545.662 308.036 544.779 309.112 543.816C310.016 542.686 310.834 541.49 311.56 540.239Z" fill="#EB996E"/>
<path d="M296.786 558.025C297.238 559.935 297.354 561.909 297.13 563.858C297.057 565.593 296.813 567.316 296.401 569.003V569.099C296.35 569.126 296.293 569.14 296.235 569.142C296.177 569.144 296.119 569.132 296.066 569.108C296.013 569.084 295.967 569.049 295.929 569.005C295.892 568.96 295.865 568.908 295.851 568.852C295.851 568.714 295.851 568.659 295.851 568.659C295.851 568.659 295.851 568.728 295.947 568.783C296.044 568.838 296.14 568.893 296.181 568.783L296.099 568.893C296.099 567.957 296.305 566.004 296.429 563.748C296.413 561.834 296.533 559.922 296.786 558.025Z" fill="#EB996E"/>
<path d="M312.977 552.33C312.447 553.206 311.819 554.018 311.106 554.752C309.53 556.585 308.147 558.577 306.98 560.694C305.818 562.809 305.159 565.162 305.054 567.572C305.054 569.43 305.37 570.558 305.246 570.585C304.764 569.655 304.523 568.62 304.545 567.572C304.503 565.049 305.125 562.559 306.347 560.35C307.559 558.178 309.058 556.179 310.804 554.408C311.437 553.626 312.167 552.928 312.977 552.33Z" fill="#EB996E"/>
<path d="M310.157 565.014C309.727 563.467 309.799 561.824 310.362 560.321C310.926 558.818 311.952 557.532 313.294 556.65C318.094 553.238 332.469 544.269 332.772 544.269C333.075 544.269 349.651 538.767 356.625 538.052C363.599 537.336 394.124 552.496 394.124 552.496C394.124 552.496 401.208 562.703 400.066 572.497C398.925 582.291 392.542 582.855 392.542 582.855L383.683 580.695L374.549 578.948C374.549 578.948 354.341 584.575 351.164 583.543C347.986 582.511 346.886 579.058 350.325 577.188C353.764 575.317 363.654 572.387 363.654 572.387L371.261 569.168L346.5 572.703C346.5 572.703 325.564 576.83 323.115 576.252C320.667 575.674 320.295 573.845 320.089 572.125C320.089 572.125 311.657 576.252 309.153 573.996C306.649 571.74 305.549 566.829 310.157 565.014Z" fill="#FFBE9D"/>
<path d="M363.6 558.988C362.986 559.087 362.364 559.12 361.743 559.085C360.56 559.085 358.84 559.085 356.722 559.222C354.251 559.334 351.796 559.68 349.39 560.254C347.972 560.615 346.59 561.108 345.263 561.726C343.887 562.359 342.512 563.101 341.136 563.927C339.733 564.729 338.27 565.424 336.762 566.004C335.351 566.525 333.873 566.845 332.373 566.953C329.902 566.954 327.438 567.231 325.027 567.779C323.454 568.28 322.066 569.237 321.038 570.53C320.69 571.032 320.382 571.561 320.116 572.112C320.116 572.112 320.116 571.933 320.199 571.63C320.341 571.187 320.545 570.766 320.804 570.379C321.795 568.95 323.217 567.875 324.862 567.311C327.298 566.674 329.801 566.337 332.318 566.307C335.313 565.957 338.191 564.936 340.737 563.322C342.113 562.537 343.488 561.74 344.947 561.093C346.305 560.473 347.719 559.985 349.17 559.635C351.619 559.063 354.124 558.763 356.639 558.741C358.785 558.741 360.505 558.741 361.702 558.823C362.338 558.819 362.974 558.874 363.6 558.988Z" fill="#EB996E"/>
<path d="M356.116 548.548C355.974 548.642 355.821 548.72 355.662 548.781C355.373 548.919 354.919 549.098 354.286 549.304C352.598 549.824 350.874 550.22 349.128 550.487C346.941 550.872 344.3 551.161 341.493 551.863C338.47 552.777 335.565 554.047 332.841 555.646C327.765 558.47 322.464 560.872 316.994 562.826C314.903 563.569 313.183 564.119 311.987 564.477C311.38 564.697 310.753 564.858 310.116 564.959C310.686 564.653 311.285 564.404 311.904 564.216L316.815 562.345C322.206 560.267 327.446 557.817 332.497 555.013C335.272 553.387 338.239 552.112 341.328 551.216C343.879 550.64 346.46 550.208 349.059 549.923C350.791 549.704 352.508 549.387 354.204 548.974C354.833 548.796 355.471 548.654 356.116 548.548Z" fill="#EB996E"/>
<path d="M376.214 554.449C376.032 553.912 375.898 553.359 375.815 552.798C375.486 551.512 374.852 550.323 373.965 549.334C373.079 548.345 371.968 547.585 370.725 547.117C370.178 546.969 369.644 546.776 369.129 546.539C369.129 546.457 369.817 546.374 370.89 546.635C372.284 547.011 373.54 547.78 374.508 548.85C375.469 549.927 376.095 551.261 376.31 552.688C376.454 553.272 376.421 553.885 376.214 554.449Z" fill="#EB996E"/>
<path d="M387.659 569.897C387.633 569.124 387.564 568.352 387.452 567.586C386.983 565.797 385.927 564.218 384.453 563.102C382.936 562 381.262 561.133 379.487 560.529C378.715 560.325 377.974 560.014 377.286 559.607C378.09 559.618 378.886 559.767 379.639 560.048C381.537 560.535 383.325 561.38 384.907 562.538C386.512 563.749 387.598 565.523 387.947 567.504C388.147 568.31 388.044 569.161 387.659 569.897Z" fill="#EB996E"/>
<path d="M320.172 572.098C319.822 572.41 319.416 572.653 318.975 572.813C317.826 573.355 316.64 573.815 315.426 574.189C314.59 574.481 313.735 574.716 312.867 574.891C311.82 575.029 310.756 574.92 309.758 574.574C309.195 574.368 308.681 574.046 308.25 573.629C307.819 573.212 307.48 572.709 307.255 572.153C306.686 571.023 306.456 569.752 306.594 568.494C306.737 567.545 307.228 566.682 307.97 566.073C308.603 565.517 309.311 565.053 310.075 564.697L309.896 565.11C309.336 563.405 309.464 561.549 310.254 559.938C310.908 558.729 311.791 557.66 312.853 556.787C313.535 556.219 314.262 555.708 315.027 555.26C315.29 555.071 315.583 554.927 315.894 554.834C315.962 554.93 314.779 555.618 313.142 557.104C312.176 557.987 311.375 559.035 310.776 560.199C310.098 561.685 310.019 563.375 310.556 564.917L310.639 565.179L310.377 565.316C309.084 565.99 307.53 566.981 307.378 568.604C307.264 569.723 307.464 570.853 307.956 571.864C308.139 572.34 308.419 572.772 308.779 573.132C309.139 573.492 309.571 573.773 310.047 573.955C310.926 574.277 311.866 574.4 312.798 574.313C313.643 574.161 314.479 573.963 315.302 573.721C316.829 573.295 318.053 572.869 318.879 572.566C319.292 572.365 319.725 572.208 320.172 572.098Z" fill="#EB996E"/>
<path d="M426.753 293.828C423.768 264.032 417.454 234.375 418.761 204.414L394.261 219.711C395.486 231.568 384.825 240.757 378.648 250.937C374.952 257.155 372.784 264.162 372.323 271.382C371.861 278.601 373.119 285.827 375.993 292.466C378.194 297.418 381.317 302.095 382.129 307.46C383.504 316.512 377.905 325.714 379.969 334.642C382.335 344.918 394.908 350.558 405.046 347.669C415.184 344.78 422.447 335.288 425.432 325.233C428.417 315.177 427.798 304.324 426.753 293.828Z" fill="#263238"/>
<path d="M395.582 214.676C396.937 207.406 400.201 200.627 405.039 195.034C409.878 189.441 416.116 185.234 423.115 182.846C430.114 180.458 437.623 179.974 444.87 181.443C452.118 182.913 458.845 186.283 464.362 191.208C468.833 195.211 472.492 200.205 477.664 203.245C483.51 206.67 484.267 205.514 490.705 207.592C497.142 209.669 509.757 226.479 509.963 233.247L514.97 262.684C515.135 269.631 506.469 274.102 499.756 272.313C493.043 270.525 488.311 264.596 484.459 258.791C480.608 252.986 476.949 246.7 471.02 243.055C461.184 237.016 448.556 240.097 437.414 243.055C426.271 246.012 413.327 248.557 404.056 241.679C396.132 235.695 393.766 224.415 395.582 214.676Z" fill="#263238"/>
<path d="M392.033 257.32C392.033 237.951 403.437 213.507 422.777 214.387L483.716 225.942C486.553 226.068 489.239 227.254 491.242 229.267C493.244 231.28 494.418 233.972 494.529 236.809L496.826 381.935H497.239C497.239 381.935 476.068 435.171 435.626 425.184C427.606 423.203 433.535 403.243 431.416 394.494L431.017 394.577C430.935 393.518 430.866 392.541 430.783 391.537C429.6 384.99 429.107 378.337 429.312 371.687C428.472 360.008 428.184 355.18 428.184 355.331C428.184 355.482 403.285 352.717 396.242 320.872C392.748 305.108 391.964 278.848 392.033 257.32Z" fill="#FFBE9D"/>
<path d="M402.79 282.658C402.843 283.733 403.315 284.745 404.104 285.478C404.893 286.21 405.937 286.605 407.013 286.579C407.541 286.59 408.065 286.495 408.556 286.3C409.046 286.104 409.492 285.813 409.868 285.442C410.244 285.072 410.542 284.629 410.744 284.142C410.945 283.654 411.048 283.131 411.044 282.603C410.99 281.528 410.519 280.516 409.73 279.784C408.941 279.051 407.897 278.656 406.821 278.683C406.293 278.672 405.768 278.766 405.278 278.962C404.788 279.157 404.341 279.448 403.965 279.819C403.59 280.19 403.292 280.632 403.09 281.119C402.888 281.607 402.786 282.13 402.79 282.658Z" fill="#263238"/>
<path d="M398.539 270.622C399.076 271.131 402.061 268.627 406.504 268.379C410.948 268.132 414.332 270.14 414.758 269.576C414.992 269.315 414.4 268.379 412.928 267.43C410.926 266.212 408.595 265.644 406.257 265.807C403.971 265.97 401.795 266.851 400.039 268.324C398.663 269.397 398.264 270.402 398.539 270.622Z" fill="#263238"/>
<path d="M442.82 280.416C442.873 281.491 443.345 282.503 444.134 283.235C444.923 283.968 445.967 284.363 447.043 284.336C447.571 284.348 448.095 284.253 448.586 284.057C449.076 283.862 449.522 283.571 449.898 283.2C450.274 282.829 450.572 282.387 450.774 281.9C450.975 281.412 451.078 280.889 451.074 280.361C451.02 279.278 450.543 278.26 449.745 277.527C448.947 276.793 447.893 276.403 446.809 276.44C446.285 276.435 445.765 276.534 445.279 276.731C444.794 276.929 444.352 277.222 443.981 277.592C443.61 277.962 443.316 278.402 443.116 278.887C442.917 279.372 442.816 279.892 442.82 280.416Z" fill="#263238"/>
<path d="M442.215 268.833C442.751 269.329 445.736 266.839 450.18 266.577C454.623 266.316 458.007 268.352 458.433 267.774C458.653 267.513 458.089 266.577 456.604 265.628C454.599 264.415 452.27 263.849 449.932 264.005C447.625 264.144 445.421 265.005 443.632 266.467C442.352 267.595 441.94 268.6 442.215 268.833Z" fill="#263238"/>
<path d="M428.087 302.715C428.087 302.454 425.336 302.151 420.797 301.848C419.655 301.848 418.568 301.628 418.334 300.872C418.168 299.705 418.36 298.515 418.885 297.46C419.792 294.709 420.728 291.724 421.718 288.642C425.639 276.069 428.39 265.766 427.881 265.614C427.372 265.463 423.754 275.519 419.875 288.078L417.192 296.965C416.557 298.37 416.445 299.955 416.876 301.436C417.063 301.828 417.337 302.173 417.678 302.442C418.02 302.712 418.418 302.899 418.843 302.99C419.481 303.123 420.133 303.174 420.783 303.142C425.295 303.114 428.087 302.963 428.087 302.715Z" fill="#263238"/>
<path d="M428.184 355.414C443.338 354.727 458.004 349.851 470.553 341.327C470.553 341.327 461.034 364.369 428.679 363.337L428.184 355.414Z" fill="#EB996E"/>
<path d="M430.605 313.293C431.383 312.178 432.434 311.28 433.657 310.686C434.88 310.091 436.235 309.819 437.593 309.895C438.577 309.919 439.545 310.144 440.439 310.556C441.334 310.967 442.134 311.557 442.793 312.289C443.431 312.992 443.839 313.874 443.959 314.817C444.08 315.759 443.908 316.716 443.467 317.557C442.803 318.397 441.904 319.02 440.885 319.345C439.865 319.671 438.772 319.686 437.744 319.387C435.602 318.772 433.604 317.733 431.87 316.333C431.336 316.012 430.869 315.592 430.495 315.095C430.317 314.86 430.213 314.578 430.196 314.284C430.178 313.99 430.249 313.698 430.398 313.444" fill="#EB996E"/>
<path d="M441.307 304.998C440.578 304.998 440.853 309.812 436.946 313.472C433.04 317.131 427.867 316.924 427.867 317.599C427.867 317.901 429.064 318.465 431.237 318.396C434.062 318.269 436.751 317.148 438.831 315.232C440.826 313.391 442.025 310.845 442.174 308.134C442.27 306.112 441.651 304.943 441.307 304.998Z" fill="#263238"/>
<path d="M440.082 252.01C440.591 253.193 444.993 252.354 450.235 252.67C455.476 252.986 459.781 254.142 460.4 253.014C460.676 252.477 459.878 251.391 458.117 250.263C455.763 248.966 453.145 248.223 450.461 248.09C447.777 247.956 445.098 248.436 442.627 249.492C440.77 250.442 439.931 251.446 440.082 252.01Z" fill="#263238"/>
<path d="M399.392 257.677C400.231 258.64 403.23 257.416 406.903 257.141C410.576 256.866 413.781 257.416 414.387 256.315C414.676 255.779 414.125 254.802 412.695 253.936C410.801 252.896 408.639 252.445 406.488 252.641C404.336 252.838 402.292 253.671 400.617 255.036C399.379 256.15 399.021 257.21 399.392 257.677Z" fill="#263238"/>
<path d="M423.328 206.106L425.831 202.447C444.538 203.416 463.025 206.924 480.786 212.874C487.885 215.254 495.093 218.184 500.182 223.672C507.198 231.211 508.917 242.105 510.293 252.312C515.548 291.146 520.39 331.189 510.431 369.101C507.184 364.534 501.269 362.759 495.712 362.03C490.154 361.301 484.363 361.329 479.205 359.086C476.403 357.803 473.901 355.949 471.859 353.641C469.817 351.334 468.28 348.625 467.347 345.688C465.509 339.761 465.816 333.377 468.213 327.654C470.813 321.285 475.752 314.985 474.032 308.396C472.23 301.421 463.88 297.886 461.542 291.077C457.511 279.302 473.647 267.499 469.507 255.765C467.966 251.432 463.922 248.461 459.685 246.672C455.448 244.884 450.881 244.017 446.603 242.353C439.489 239.406 433.447 234.355 429.287 227.876C425.127 221.397 423.047 213.801 423.328 206.106Z" fill="#263238"/>
<path d="M518.492 225.296C498.49 197.261 484.941 193.863 466.123 192.818L492.259 251.418C496.179 260.855 501.572 272.3 502.411 282.465C503.401 294.529 499.219 304.626 493.621 315.342C486.908 328.218 479.535 340.488 467.993 349.292C456.452 358.096 430.756 369.169 417.413 363.461L436.024 373.874L480.484 374.039L532.275 374.245C532.275 374.245 538.328 368.936 543.651 355.235C557.008 320.913 540.804 256.563 518.492 225.296Z" fill="#9234EA"/>
<path d="M555.371 407.893C555.371 407.893 544.229 385.03 529.689 372.457C515.149 359.884 506.221 360.008 485.477 361.769C464.733 363.53 435.708 366.803 428.83 365.056L428.184 355.427C424.772 355.083 410.782 348.274 408.059 344.161C402.859 349.485 400.589 355.166 401.772 361.205L398.374 362.484C393.362 364.318 389.2 367.933 386.683 372.64C384.166 377.346 383.471 382.815 384.728 388.001C386.021 392.954 389.144 395.994 395.417 397.08C420.315 401.386 486.88 383.393 506.923 383.324C526.965 383.256 555.371 407.893 555.371 407.893Z" fill="#9234EA"/>
<path d="M393.161 396.819C393.745 396.802 394.329 396.834 394.908 396.915C396.036 397.025 397.659 397.204 399.846 397.355C405.914 397.828 412.006 397.929 418.087 397.658C427.095 397.194 436.049 395.98 444.856 394.027C449.835 392.94 455.021 391.619 460.345 390.079L476.77 385.003C488.036 381.577 499.33 379.239 509.66 380.257C518.762 381.089 527.571 383.906 535.467 388.51C540.767 391.617 545.56 395.518 549.676 400.079C550.795 401.311 551.842 402.607 552.813 403.958C553.172 404.392 553.499 404.852 553.789 405.334C553.356 404.949 552.968 404.515 552.634 404.041C551.932 403.147 550.818 401.895 549.346 400.327C538.849 389.332 524.707 382.535 509.564 381.206C499.44 380.271 488.325 382.582 477.1 385.993C471.474 387.685 466.013 389.487 460.661 391.041C455.31 392.596 450.097 393.889 445.076 394.948C436.206 396.873 427.184 398.015 418.114 398.36C412.003 398.564 405.885 398.339 399.805 397.686C397.659 397.466 395.995 397.218 394.88 397.039C394.302 397.015 393.727 396.942 393.161 396.819Z" fill="#263238"/>
<path d="M556.568 400.382C531.45 367.725 483.29 355.248 445.461 371.59L405.569 380.05C395.045 381.866 378.167 385.291 377.369 395.044C376.64 405.374 378.889 415.695 383.848 424.785C393.12 440.934 388.085 462.573 397.356 478.722C401.731 486.357 406.201 494.101 412.584 500.168C418.967 506.234 427.633 510.485 436.382 509.536C446.121 508.49 454.1 501.378 460.29 493.785C473.62 477.429 481.942 457.565 494.419 440.563C506.895 423.561 521.614 411.043 547.833 409.433C552.593 409.131 566.17 415.472 566.17 415.472C566.555 413.546 557.765 401.909 556.568 400.382Z" fill="#9234EA"/>
<g opacity="0.3">
<path d="M502.879 380.958C485.532 380.958 468.489 389.294 451.679 393.009C384.054 407.893 384.054 382.389 384.054 382.389C381.936 394.37 393.188 399.873 405.032 402.624C427.647 407.851 451.803 410.658 468.117 405.444C481.268 401.317 494.996 398.25 508.271 394.439C521.545 390.629 540.666 392.087 550.722 401.524C541.725 386.736 520.225 380.917 502.879 380.958Z" fill="black"/>
</g>
<g opacity="0.3">
<path d="M414.992 379.129C415.8 380.9 416.98 382.477 418.451 383.751C419.923 385.026 421.652 385.969 423.52 386.516C427.266 387.595 431.187 387.932 435.061 387.506C449.203 386.543 462.794 381.825 476.178 377.148C465.476 376.777 455.118 380.504 444.622 382.65C434.126 384.796 422.296 384.934 413.767 378.524" fill="black"/>
</g>
<path d="M559.966 410.85C559.966 410.85 559.842 410.754 559.65 410.547L558.81 409.585C558.081 408.718 556.967 407.507 555.495 405.967C551.351 401.609 546.343 398.165 540.79 395.856C536.915 394.394 532.845 393.513 528.712 393.242C523.974 392.858 519.207 393.01 514.502 393.696C504.516 395.072 493.965 398.58 482.767 401.771C471.57 404.963 460.882 408.292 450.716 408.828C441.754 409.214 432.777 408.573 423.96 406.916C416.45 405.54 410.466 403.945 406.325 402.913L401.566 401.702L400.341 401.372L399.915 401.235C400.061 401.213 400.209 401.213 400.355 401.235L401.607 401.496L406.394 402.583C410.521 403.532 416.546 405.031 424.057 406.352C432.835 407.937 441.764 408.528 450.675 408.113C460.73 407.549 471.432 404.371 482.575 401.028C493.717 397.686 504.337 394.315 514.406 392.981C519.163 392.31 523.981 392.181 528.767 392.596C533.9 392.891 538.923 394.203 543.545 396.456C548.166 398.709 552.294 401.857 555.688 405.719C557.146 407.301 558.233 408.539 558.921 409.433L559.705 410.437L559.966 410.85Z" fill="black"/>
<path d="M534.71 377.203C534.606 377.135 534.509 377.056 534.421 376.969L533.623 376.24C532.949 375.58 531.89 374.658 530.514 373.489C526.553 370.287 522.209 367.589 517.584 365.455C510.719 362.31 503.42 360.214 495.932 359.238C486.754 358.098 477.468 358.121 468.296 359.306C459.115 360.52 450.005 362.219 441.004 364.396C437.027 365.33 432.932 365.655 428.858 365.359C425.275 365.091 421.835 363.844 418.912 361.755C416.567 359.974 414.563 357.784 412.997 355.29C411.815 353.429 410.789 351.473 409.929 349.443C409.228 347.779 408.76 346.445 408.457 345.537L408.141 344.505C408.096 344.391 408.068 344.27 408.059 344.147C408.059 344.147 408.127 344.257 408.21 344.477C408.292 344.698 408.444 345.083 408.595 345.495C408.939 346.376 409.448 347.683 410.191 349.333C411.089 351.325 412.142 353.243 413.341 355.07C414.908 357.495 416.898 359.619 419.215 361.342C422.081 363.344 425.438 364.529 428.926 364.768C432.935 365.028 436.96 364.685 440.867 363.75C449.879 361.527 459.009 359.81 468.214 358.605C477.447 357.413 486.795 357.413 496.028 358.605C503.571 359.628 510.914 361.794 517.804 365.029C522.443 367.204 526.777 369.979 530.693 373.283C531.755 374.184 532.77 375.139 533.733 376.144L534.476 376.914C534.641 377.107 534.724 377.189 534.71 377.203Z" fill="black"/>
<path d="M526.594 376.529H526.25L525.232 376.364L521.312 375.717C516.507 374.978 511.668 374.486 506.813 374.245C499.607 373.891 492.384 374.121 485.216 374.933C476.446 376.11 467.755 377.814 459.19 380.037C450.056 382.238 441.169 384.163 432.929 384.04C429.04 384.064 425.163 383.602 421.388 382.664C418.096 381.733 415.052 380.084 412.474 377.836C408.775 374.603 405.771 370.653 403.643 366.226C402.833 364.623 402.193 362.94 401.731 361.205C401.796 361.302 401.847 361.409 401.882 361.521L402.253 362.484C402.597 363.337 403.12 364.561 403.89 366.088C406.09 370.422 409.118 374.283 412.804 377.451C415.343 379.614 418.325 381.196 421.539 382.086C425.267 382.993 429.093 383.432 432.929 383.393C441.073 383.393 449.89 381.564 459.066 379.349C467.663 377.109 476.392 375.41 485.202 374.259C492.406 373.483 499.662 373.304 506.895 373.723C511.766 374.006 516.616 374.571 521.422 375.415C523.127 375.731 524.434 375.992 525.328 376.199L526.333 376.433C526.498 376.474 526.594 376.515 526.594 376.529Z" fill="black"/>
<path d="M527.86 314.792C527.737 315.573 527.563 316.345 527.338 317.103C527.123 318.007 526.856 318.898 526.54 319.772C526.182 320.804 525.838 321.987 525.288 323.238C524.738 324.49 524.201 325.893 523.472 327.365C522.743 328.837 521.931 330.309 521.037 331.891C517.02 338.653 511.793 344.617 505.616 349.485C504.172 350.586 502.865 351.645 501.489 352.498C500.114 353.351 498.876 354.163 497.679 354.837C496.482 355.511 495.382 356.061 494.419 356.542C493.594 356.974 492.744 357.355 491.874 357.684C491.157 358.014 490.417 358.29 489.659 358.51C490.33 358.095 491.034 357.737 491.764 357.437C492.452 357.12 493.291 356.721 494.24 356.185C495.189 355.648 496.29 355.139 497.431 354.396C498.573 353.654 499.866 352.938 501.159 352.003C502.452 351.067 503.814 350.063 505.286 348.976C511.345 344.088 516.511 338.186 520.556 331.533C521.45 329.979 522.33 328.521 523.018 327.09C523.706 325.66 524.394 324.339 524.903 323.073C525.412 321.808 525.852 320.68 526.278 319.676C526.705 318.671 526.952 317.777 527.173 317.062C527.337 316.287 527.567 315.528 527.86 314.792Z" fill="black"/>
<path d="M525.782 396.791C525.409 396.791 525.036 396.759 524.668 396.695L523.292 396.516C522.77 396.448 522.151 396.516 521.477 396.42C517.586 396.327 513.711 396.928 510.032 398.195C507.495 399.066 505.026 400.123 502.645 401.358C499.918 402.795 497.268 404.375 494.707 406.09C489.288 409.708 483.62 414.138 477.54 418.608L446.506 441.65L437.029 448.528L434.429 450.316C434.139 450.551 433.826 450.753 433.493 450.921C433.756 450.663 434.036 450.424 434.332 450.206L436.85 448.253L446.19 441.168L477.141 418.031C483.221 413.574 488.889 409.144 494.377 405.54C496.964 403.825 499.641 402.25 502.397 400.822C504.82 399.602 507.331 398.562 509.908 397.713C513.647 396.475 517.584 395.943 521.518 396.145C522.206 396.145 522.825 396.214 523.347 396.296L524.723 396.544C525.083 396.595 525.437 396.678 525.782 396.791Z" fill="black"/>
<path d="M570.174 438.968C569.907 438.344 569.704 437.694 569.568 437.028C569.238 435.777 568.77 433.947 568.11 431.718C567.367 429.105 566.425 426.552 565.29 424.084C563.911 421.079 562.027 418.334 559.719 415.967C557.423 413.592 554.551 411.853 551.382 410.919C548.775 410.22 546.066 409.983 543.376 410.217C540.887 410.497 538.416 410.919 535.975 411.483C536.123 411.385 536.286 411.31 536.457 411.263C536.787 411.139 537.269 410.974 537.833 410.795C539.628 410.262 541.471 409.903 543.335 409.722C546.098 409.4 548.896 409.591 551.589 410.286C554.882 411.218 557.871 413.002 560.255 415.458C562.624 417.884 564.543 420.712 565.923 423.809C567.051 426.32 567.971 428.919 568.674 431.581C569.266 433.837 569.665 435.708 569.912 436.973C570.057 437.629 570.144 438.297 570.174 438.968Z" fill="black"/>
<path d="M545.769 182.229C572.817 180.973 593.724 158.028 592.468 130.981C591.211 103.933 568.266 83.0257 541.219 84.2823C514.172 85.5389 493.264 108.484 494.521 135.531C495.777 162.578 518.722 183.486 545.769 182.229Z" fill="white"/>
<path d="M516.222 189.915C516.675 189.788 517.134 189.682 517.598 189.599C518.922 189.435 520.264 189.69 521.436 190.328C522.242 190.748 522.947 191.339 523.499 192.061C524.112 192.9 524.47 193.899 524.531 194.936C524.66 196.13 524.42 197.334 523.844 198.387C523.268 199.44 522.383 200.291 521.309 200.826C520.235 201.361 519.022 201.554 517.835 201.379C516.647 201.204 515.542 200.669 514.668 199.847C513.88 199.174 513.298 198.292 512.989 197.302C512.735 196.408 512.683 195.468 512.838 194.551C513.04 193.231 513.646 192.006 514.571 191.043C515.232 190.369 515.713 190.135 515.686 190.094C515.563 190.131 515.447 190.187 515.342 190.259C515.202 190.331 515.069 190.414 514.943 190.507C514.77 190.635 514.604 190.772 514.447 190.919C513.599 191.731 512.983 192.754 512.664 193.884C512.344 195.014 512.333 196.208 512.632 197.344C512.937 198.413 513.549 199.37 514.392 200.095C515.312 200.912 516.441 201.455 517.653 201.663C518.957 201.938 520.317 201.765 521.51 201.17C522.704 200.576 523.662 199.596 524.228 198.389C524.788 197.294 525.035 196.066 524.943 194.84C524.869 193.728 524.472 192.662 523.802 191.772C523.215 191.006 522.456 190.389 521.587 189.97C520.351 189.332 518.941 189.114 517.57 189.351C517.359 189.382 517.152 189.433 516.951 189.503C516.795 189.542 516.643 189.598 516.497 189.668C516.332 189.819 516.208 189.915 516.222 189.915Z" fill="#263238"/>
<path d="M502.672 161.151L502.273 160.45L501.063 158.441C500.802 157.988 500.499 157.492 500.169 156.956C499.839 156.419 499.591 155.759 499.261 155.071C498.931 154.383 498.587 153.696 498.215 152.87C498.013 152.472 497.843 152.058 497.706 151.632C497.555 151.192 497.39 150.752 497.225 150.257C495.559 145.795 494.58 141.105 494.322 136.349C493.942 130.05 494.773 123.737 496.771 117.751L497.638 115.248C497.982 114.409 498.381 113.597 498.752 112.758C498.931 112.345 499.123 111.932 499.316 111.506C499.491 111.076 499.702 110.662 499.949 110.268L501.324 107.806C501.558 107.393 501.792 106.98 502.04 106.568L502.892 105.385L504.612 102.991C505.203 102.207 505.905 101.478 506.565 100.708L507.57 99.5659C507.735 99.387 507.9 99.1807 508.078 99.0019L508.642 98.4791C510.118 96.9965 511.695 95.6176 513.361 94.3523C514.214 93.7333 515.039 92.9767 515.947 92.4403L518.698 90.7483C519.166 90.4732 519.62 90.1568 520.074 89.9092L521.573 89.1938C522.577 88.7261 523.568 88.2034 524.599 87.8182C526.721 86.9744 528.894 86.2668 531.106 85.6998L532.784 85.2734L533.637 85.067L534.504 84.9432L537.984 84.4205C539.167 84.2967 540.35 84.2692 541.547 84.2004C542.138 84.2004 542.744 84.1041 543.349 84.2004L545.151 84.283C547.591 84.3722 550.022 84.625 552.428 85.0395L556.046 85.9062L556.954 86.1263C557.256 86.2088 557.545 86.3188 557.848 86.4151L559.622 87.0342L561.41 87.6394L563.144 88.4098L564.877 89.2076L565.744 89.5928C566.032 89.7441 566.294 89.9092 566.583 90.0742L569.912 91.9863L573.076 94.2423C581.566 100.605 587.748 109.564 590.683 119.76C591.013 121.011 591.33 122.277 591.646 123.515L592.224 127.325L592.361 128.275V129.224L592.458 131.122L592.554 133.02L592.471 134.905L592.389 136.79V137.725L592.265 138.647C592.086 139.885 591.921 141.109 591.756 142.333C591.269 144.731 590.621 147.093 589.817 149.404L589.239 151.11C589.046 151.687 588.757 152.21 588.523 152.76C588.015 153.847 587.574 154.947 587.024 155.993C586.474 157.038 585.855 158.043 585.277 159.061L584.837 159.817C584.672 160.065 584.493 160.299 584.328 160.532L583.324 161.908C581.996 163.761 580.548 165.526 578.991 167.19C578.206 168.002 577.367 168.731 576.57 169.501L575.345 170.629C574.946 171.001 574.479 171.317 574.052 171.647L571.466 173.628C570.586 174.247 569.637 174.77 568.715 175.334C566.951 176.433 565.112 177.408 563.212 178.25L562.525 178.58L561.809 178.855L560.434 179.364C559.471 179.694 558.549 180.093 557.6 180.369L554.739 181.098L553.363 181.455L551.988 181.675L549.236 182.102C548.782 182.182 548.322 182.228 547.861 182.239H546.485C545.577 182.239 544.669 182.363 543.734 182.377L541.079 182.267C534.776 181.957 528.592 180.434 522.866 177.782C522.233 177.494 521.601 177.232 520.995 176.943L519.29 175.953L517.639 175.017C517.364 174.852 517.089 174.715 516.841 174.55L516.112 174.027L513.361 172.046C512.494 171.386 511.751 170.671 510.995 170.038L509.922 169.102C509.577 168.816 509.251 168.508 508.945 168.181L507.088 166.53C506.579 165.98 506.084 165.485 505.712 165.003L504.653 163.628L503.278 161.77C502.961 161.358 502.782 161.151 502.782 161.151L503.25 161.798C503.566 162.238 504.034 162.857 504.626 163.683L505.657 165.058C506.07 165.553 506.565 166.049 507.033 166.599L508.684 168.401C508.986 168.737 509.312 169.049 509.66 169.336L510.733 170.285C511.476 170.918 512.219 171.661 513.086 172.308L515.837 174.316L516.566 174.839C516.827 175.017 517.102 175.155 517.364 175.32L519.014 176.269L520.734 177.273L522.605 178.126C528.355 180.818 534.573 182.369 540.914 182.693L543.583 182.817C544.477 182.817 545.398 182.735 546.334 182.693L547.709 182.611C548.171 182.609 548.631 182.568 549.085 182.487L551.905 182.061L553.281 181.84L554.656 181.483L557.545 180.754C558.494 180.479 559.43 180.093 560.393 179.763L561.837 179.241C562.071 179.144 562.318 179.075 562.552 178.965L563.254 178.635C565.185 177.787 567.055 176.808 568.852 175.705C569.76 175.141 570.709 174.619 571.604 174L574.217 172.005C574.657 171.661 575.111 171.358 575.593 170.987L576.817 169.845C577.615 169.075 578.482 168.332 579.266 167.52C580.837 165.842 582.298 164.064 583.64 162.197C583.97 161.715 584.314 161.248 584.658 160.821C584.823 160.587 585.002 160.354 585.167 160.106L585.607 159.336L587.382 156.254C587.932 155.195 588.386 154.081 588.895 152.994C589.129 152.43 589.431 151.894 589.624 151.33L590.202 149.596C591.017 147.269 591.669 144.888 592.155 142.471C592.334 141.246 592.513 139.995 592.678 138.757L592.815 137.821V136.872L592.898 134.988L592.98 133.075L592.884 131.163L592.774 129.251V128.275L592.623 127.325L592.045 123.488C591.729 122.222 591.412 120.956 591.082 119.691C588.179 109.375 581.975 100.296 573.419 93.8434L570.228 91.5599L566.858 89.634C566.583 89.469 566.308 89.3039 566.019 89.1526L565.138 88.7537L563.391 87.9558L561.644 87.1855L559.842 86.5665L558.04 85.9474L557.146 85.6448L556.224 85.4385C555.014 85.1358 553.79 84.8469 552.579 84.5718C550.151 84.146 547.697 83.8886 545.233 83.8015L543.418 83.719C542.812 83.719 542.207 83.719 541.602 83.719C540.391 83.8015 539.194 83.8153 538.011 83.9391L534.49 84.4755L533.623 84.6131C533.334 84.6131 533.046 84.7507 532.77 84.8194L531.065 85.2596C528.837 85.8229 526.649 86.5352 524.517 87.3918C523.471 87.832 522.467 88.3685 521.449 88.8362L519.95 89.5653C519.455 89.8129 519.001 90.1292 518.574 90.4181L515.823 92.1239C514.915 92.7291 514.076 93.4307 513.223 94.0635C511.544 95.3288 509.954 96.7076 508.464 98.1903L507.9 98.7267C507.721 98.9056 507.556 99.1119 507.391 99.3045C507.226 99.4971 506.717 100.075 506.373 100.446C505.712 101.23 504.997 101.959 504.419 102.743L502.686 105.165L501.833 106.361C501.586 106.774 501.352 107.2 501.118 107.613L499.742 110.089C499.503 110.489 499.296 110.908 499.123 111.341L498.546 112.607C498.174 113.446 497.775 114.271 497.445 115.11C497.115 115.949 496.867 116.802 496.578 117.641C494.583 123.665 493.77 130.017 494.185 136.349C494.459 141.129 495.466 145.838 497.17 150.312L497.665 151.687C497.801 152.113 497.972 152.527 498.174 152.925L499.247 155.126C499.591 155.8 499.866 156.433 500.183 156.997L501.09 158.469L502.342 160.464C502.507 160.918 502.672 161.151 502.672 161.151Z" fill="#263238"/>
<path d="M518.739 134.492L526.002 127.229L540.006 139.678L567.49 113.226L574.231 120.489L538.974 153.682L518.739 134.492Z" fill="#9234EA"/>
</svg>
